<?xml version="1.0" standalone="no"?><!DOCTYPE svg PUBLIC "-//W3C//DTD SVG 1.1//EN" "http://www.w3.org/Graphics/SVG/1.1/DTD/svg11.dtd"><svg t="1505220951258" class="icon" style="" viewBox="0 0 1024 1024" version="1.1" xmlns="http://www.w3.org/2000/svg" p-id="2352" xmlns:xlink="http://www.w3.org/1999/xlink" width="200" height="200"><defs><style type="text/css"></style></defs><path d="M558.554 465.415h-92.89v92.89h92.89v-92.89z m0 162.55h-92.89v92.889h92.89v-92.889zM930.112 93.888h-92.89v-69.66c0-12.832-10.396-23.23-23.23-23.23-12.832 0-23.198 10.398-23.198 23.23v69.66H233.456v-69.66c0-12.832-10.397-23.23-23.23-23.23-12.831 0-23.198 10.398-23.198 23.23v69.66h-92.89c-51.298 0-92.89 41.591-92.89 92.89v743.086c0 51.298 41.591 92.89 92.89 92.89h835.976c51.298 0 92.89-41.592 92.89-92.89V186.777c-0.002-51.298-41.594-92.889-92.892-92.889z m46.431 835.975c0 25.634-20.797 46.43-46.431 46.43H94.137c-25.664 0-46.459-20.796-46.459-46.43V372.557h928.866v557.306h-0.001z m0-603.767H47.677V186.777c0-25.665 20.795-46.46 46.459-46.46h92.89v69.66c0 12.833 10.367 23.23 23.198 23.23 12.833 0 23.23-10.397 23.23-23.23v-69.66h557.338v69.66c0 12.833 10.366 23.23 23.198 23.23 12.834 0 23.23-10.397 23.23-23.23v-69.66h92.89c25.634 0 46.431 20.795 46.431 46.46v139.319h0.002zM790.794 627.965h-92.891v92.889h92.891v-92.889z m0-162.55h-92.891v92.89h92.891v-92.89z m-232.24 325.13h-92.89v92.889h92.89v-92.889z m-232.209 0h-92.89v92.889h92.89v-92.889z m0-325.13h-92.89v92.89h92.89v-92.89z m0 162.55h-92.89v92.889h92.89v-92.889z" p-id="2353"></path></svg>