<?xml version="1.0" standalone="no"?><!DOCTYPE svg PUBLIC "-//W3C//DTD SVG 1.1//EN" "http://www.w3.org/Graphics/SVG/1.1/DTD/svg11.dtd"><svg t="1505220978359" class="icon" style="" viewBox="0 0 1024 1024" version="1.1" xmlns="http://www.w3.org/2000/svg" p-id="4496" xmlns:xlink="http://www.w3.org/1999/xlink" width="200" height="200"><defs><style type="text/css"></style></defs><path d="M790.354636 198.310601 790.354636 118.445646l-98.061386 0 0 79.863932L331.705728 198.309578 331.705728 118.445646l-98.05934 0 0 79.863932L65.290005 198.309578l0 98.05934L958.708971 296.368918l0-98.05934L790.354636 198.309578zM937.125397 274.786367 86.87358 274.786367l0-54.892191 168.356382 0 0-79.863932 54.892191 0 0 79.863932 403.75467 0 0-79.863932 54.894238 0 0 79.863932 168.354336 0L937.125397 274.786367z" p-id="4497"></path><path d="M65.290005 933.438425 958.708971 933.438425l0-602.809215L65.290005 330.629209 65.290005 933.438425zM86.87358 352.213807l850.251817 0 0 559.642067L86.87358 911.855874 86.87358 352.213807z" p-id="4498"></path><path d="M629.671003 446.954565 401.415392 446.954565l0 117.674073c2.834558 91.687212-14.665001 153.603377-52.456722 185.724958 8.505721 7.554046 16.524348 14.176884 24.100908 19.847024 29.286-34.978652 46.298466-74.187653 51.039443-117.674073l180.052772 0 0 58.128909c0 16.060791-9.921977 24.101931-29.772071 24.101931-6.623861 0-16.548908-0.487094-29.772071-1.417279-9.458419 0-16.08228 0-19.850094 0 2.837628 11.339256 4.718465 20.777209 5.672186 28.354791 10.388605 0 25.983791 0 46.784536 0 36.862559 0 54.340629-16.548908 52.456722-49.622164L629.671003 446.954565zM604.151793 628.427686 426.933579 628.427686c0.931209-17.944697 1.418302-38.745443 1.418302-62.381769l0-4.252861 175.798888 0L604.15077 628.427686zM604.151793 537.691125 428.351881 537.691125l0-66.63463 175.798888 0L604.15077 537.691125z" p-id="4499"></path></svg>