<?xml version="1.0" standalone="no"?><!DOCTYPE svg PUBLIC "-//W3C//DTD SVG 1.1//EN" "http://www.w3.org/Graphics/SVG/1.1/DTD/svg11.dtd"><svg t="1505221072202" class="icon" style="" viewBox="0 0 1025 1024" version="1.1" xmlns="http://www.w3.org/2000/svg" p-id="12497" xmlns:xlink="http://www.w3.org/1999/xlink" width="200.1953125" height="200"><defs><style type="text/css"></style></defs><path d="M804.845568 135.264256c-8.563712-2.141184-14.982144-2.141184-23.545856-2.141184L190.511104 133.123072l0 0 590.789632 0C789.864448 133.124096 798.42304 133.124096 804.845568 135.264256L804.845568 135.264256zM832.674816 143.828992c-2.141184 0-2.141184-2.141184-4.283392-2.141184C830.533632 141.687808 832.674816 143.828992 832.674816 143.828992L832.674816 143.828992zM881.906688 184.498176c-2.141184-2.141184-4.282368-6.422528-6.422528-8.563712C877.625344 180.215808 879.766528 182.356992 881.906688 184.498176L881.906688 184.498176zM924.717056 833.08544 914.01216 833.08544l-19.263488 0L894.748672 231.590912c0-8.563712 0-14.983168-2.141184-23.54688 2.141184 6.422528 2.141184 14.983168 2.141184 23.54688L894.748672 833.08544l19.263488 0L924.717056 833.08544 924.717056 833.08544zM943.982592 826.661888c-2.141184 2.141184-6.422528 2.141184-8.564736 4.282368C937.560064 828.803072 941.841408 828.803072 943.982592 826.661888L943.982592 826.661888zM993.215488 26.097664c-21.405696-17.124352-49.23392-25.688064-77.062144-25.688064L246.162432 0.4096c-29.964288 0-57.792512 8.563712-77.057024 25.688064-21.404672 19.263488-34.250752 44.951552-34.250752 70.637568l0 34.246656L113.44896 130.981888c-29.968384 0-57.792512 8.563712-77.06112 25.68704C12.84096 178.075648 0 203.761664 0 231.590912l0 695.678976c0 27.82208 12.84096 53.510144 34.251776 70.638592 21.404672 17.122304 49.2288 25.68192 77.056 25.68192l667.851776 0c29.968384 0 57.797632-8.558592 77.06112-25.68192 21.404672-19.268608 36.38784-44.956672 36.38784-70.638592l0-34.251776L911.872 893.018112c29.969408 0 57.797632-8.563712 77.06112-25.68704 21.405696-19.264512 34.246656-44.951552 34.246656-70.639616L1023.179776 98.87744C1027.46112 71.049216 1014.62016 45.362176 993.215488 26.097664L993.215488 26.097664zM836.957184 925.128704c0 21.404672-25.688064 38.526976-55.656448 38.526976L113.44896 963.65568c-29.968384 0-55.656448-17.122304-55.656448-38.526976L57.792512 231.590912c0-21.405696 25.688064-38.529024 55.656448-38.529024l19.263488 0 57.798656 0 0 0 590.789632 0c29.968384 0 55.656448 17.122304 55.656448 38.529024L836.957184 925.128704 836.957184 925.128704 836.957184 925.128704zM969.668608 792.410112c0 8.563712-4.281344 17.127424-10.704896 23.54688l-2.141184 2.141184c-2.141184 2.141184-4.282368 4.282368-6.417408 4.282368 0 0-2.141184 0-2.141184 2.141184 0 2.141184-2.141184 0-2.141184 2.141184 0 0-2.141184 0-2.141184 2.141184l-2.141184 0c-2.141184 2.141184-6.424576 2.141184-8.564736 4.282368l-2.141184 0-2.141184 0c-2.136064 0-4.277248 0-6.418432 2.141184L911.872 835.227648l-19.263488 0L892.608512 231.590912c0-8.563712 0-14.983168-2.141184-23.54688 0-2.141184 0-2.141184-2.141184-4.282368 0-2.141184 0-2.141184-2.141184-4.282368 0-2.141184 0-2.141184-2.141184-4.277248 0-2.141184-2.137088-2.141184-2.137088-4.282368-2.141184-2.141184-2.141184-4.282368-4.282368-6.422528-2.141184-2.141184-4.282368-6.422528-6.422528-8.563712-2.141184-4.278272-6.422528-6.419456-8.563712-10.7008-2.141184-2.141184-4.277248-4.282368-8.558592-6.422528l-4.282368-4.282368-2.141184-2.141184 0 0c-2.141184 0-2.141184-2.141184-4.282368-2.141184-4.282368-2.136064-10.699776-6.418432-14.983168-8.558592-2.141184 0-2.141184-2.141184-4.282368-2.141184-2.141184 0-4.282368-2.141184-6.422528-2.141184l-2.141184 0c-4.277248 0-6.417408-2.141184-10.699776-2.141184l-2.141184 0-4.281344 0c-8.558592-2.141184-14.982144-2.141184-23.54688-2.141184L190.511104 133.122048 190.511104 98.87744c0-4.282368 0-8.563712 2.141184-12.84608 2.141184-4.282368 4.277248-6.417408 8.558592-10.699776 10.704896-10.704896 25.68704-17.128448 44.951552-17.128448L914.01216 58.203136c29.969408 0 55.656448 17.128448 55.656448 38.53312L969.668608 792.410112 969.668608 792.410112 969.668608 792.410112zM149.835776 252.995584l430.25408 0 0 57.792512-430.25408 0L149.835776 252.995584 149.835776 252.995584zM674.274304 282.964992c0-17.128448 12.84096-29.969408 29.963264-32.110592 17.127424 0 29.969408 12.84608 32.110592 29.969408l0 2.141184c0 17.122304-12.84608 29.963264-29.969408 32.104448-17.122304 0-29.963264-12.84096-32.104448-29.963264L674.274304 282.964992 674.274304 282.964992zM57.792512 362.162176l779.164672 0 0 57.797632L57.792512 419.959808 57.792512 362.162176 57.792512 362.162176 57.792512 362.162176zM57.792512 362.162176" p-id="12498"></path></svg>