<?xml version="1.0" standalone="no"?><!DOCTYPE svg PUBLIC "-//W3C//DTD SVG 1.1//EN" "http://www.w3.org/Graphics/SVG/1.1/DTD/svg11.dtd"><svg t="1505221022138" class="icon" style="" viewBox="0 0 1024 1024" version="1.1" xmlns="http://www.w3.org/2000/svg" p-id="8810" xmlns:xlink="http://www.w3.org/1999/xlink" width="200" height="200"><defs><style type="text/css"></style></defs><path d="M780.778536 525.132088 447.181739 525.132088c-27.259854 0-49.279357-22.014386-49.279357-49.273217 0-27.259854 22.018479-49.27424 49.279357-49.27424l333.596797 0c27.259854 0 49.279357 22.014386 49.279357 49.27424C830.057893 503.117702 807.827589 525.132088 780.778536 525.132088L780.778536 525.132088 780.778536 525.132088zM780.778536 525.132088" p-id="8811"></path><path d="M780.778536 720.133318 447.181739 720.133318c-27.259854 0-49.279357-22.014386-49.279357-49.273217 0-27.254737 22.018479-49.27424 49.279357-49.27424l333.596797 0c27.259854 0 49.279357 22.018479 49.279357 49.27424C830.057893 698.118931 807.827589 720.133318 780.778536 720.133318L780.778536 720.133318 780.778536 720.133318zM780.778536 720.133318" p-id="8812"></path><path d="M1007.233128 881.169991 1007.233128 257.999029c0-75.693959-68.983117-68.566632-68.983117-68.566632s-411.81423 0.422625-389.794727 0c-23.482831 0.422625-35.437094-12.366655-35.437094-12.366655s-16.356526-28.310789-45.918819-72.761164c-30.820959-46.758953-66.680678-39.209-66.680678-39.209L97.224322 65.095577c-84.080977 0-84.922135 80.933287-84.922135 80.933287l0 731.157395c0 90.162486 68.144006 79.047334 68.144006 79.047334l864.095104 0C1017.509169 956.234617 1007.233128 881.169991 1007.233128 881.169991L1007.233128 881.169991 1007.233128 881.169991zM945.381431 844.264453c0 27.888164-22.437012 50.324152-50.324152 50.324152L124.484176 894.588605c-27.889187 0-50.324152-22.437012-50.324152-50.324152L74.160024 322.581929c0-27.888164 22.434965-50.324152 50.324152-50.324152l770.573103 0c27.888164 0 50.324152 22.437012 50.324152 50.324152L945.381431 844.264453 945.381431 844.264453zM945.381431 844.264453" p-id="8813"></path><path d="M211.497948 475.858872c0 29.063943 23.563672 52.628638 52.632731 52.628638 29.063943 0 52.627614-23.559579 52.627614-52.628638 0-29.068036-23.564695-52.632731-52.627614-52.632731C235.06162 423.226141 211.497948 446.789813 211.497948 475.858872L211.497948 475.858872zM211.497948 475.858872" p-id="8814"></path><path d="M211.497948 670.860101c0 29.068036 23.563672 52.631708 52.632731 52.631708 29.063943 0 52.627614-23.563672 52.627614-52.631708 0-29.064966-23.564695-52.628638-52.627614-52.628638C235.06162 618.232486 211.497948 641.790018 211.497948 670.860101L211.497948 670.860101zM211.497948 670.860101" p-id="8815"></path></svg>