<?xml version="1.0" standalone="no"?><!DOCTYPE svg PUBLIC "-//W3C//DTD SVG 1.1//EN" "http://www.w3.org/Graphics/SVG/1.1/DTD/svg11.dtd"><svg t="1505222977910" class="icon" style="" viewBox="0 0 1024 1024" version="1.1" xmlns="http://www.w3.org/2000/svg" p-id="5229" xmlns:xlink="http://www.w3.org/1999/xlink" width="200" height="200"><defs><style type="text/css"></style></defs><path d="M327.409376 729.895659c0 0.039909 0.00307 0.079818 0.00307 0.119727l0 0.343831 0.00921 0c0.248663 16.458857 13.660114 29.723975 30.175253 29.723975 16.518209 0 29.927613-13.265118 30.176276-29.723975l0.014326 0L387.787512 483.552088l-0.005117 0c0-0.033769 0.002047-0.066515 0.002047-0.101307 0-16.671705-13.514805-30.187533-30.187533-30.187533-16.671705 0-30.187533 13.515828-30.187533 30.187533 0 0.039909 0.00307 0.078795 0.00307 0.118704l0 246.207471C327.412446 729.817887 327.409376 729.85575 327.409376 729.895659z" p-id="5230"></path><path d="M499.263419 607.388511c19.960611 17.630542 44.197618 26.568099 72.03564 26.568099 17.192567 0 32.861432-2.638083 46.750767-7.854898-6.995321 16.223496-18.187221 32.269961-33.391505 47.843658-13.897521 14.244422-29.716812 27.037796-47.166229 38.235836-0.277316 0.14224-0.556679 0.277316-0.827855 0.427742-8.098445 4.502547-13.579273 13.168927-13.579273 23.12058 0 14.588253 11.780301 26.41358 26.310226 26.41358 4.092201 0 7.966439-0.937348 11.42112-2.610454 0.026606-0.014326 0.055259-0.020466 0.082888-0.035816 0.071631-0.037862 0.143263-0.077771 0.213871-0.11768 0.743944-0.37146 1.467421-0.777713 2.168386-1.215688 37.09178-20.809955 68.305689-48.711422 92.877317-83.074044 26.828019-37.520545 40.430828-75.280544 40.430828-112.230084 0-33.04972-11.122315-60.554144-33.059953-81.746816-21.88545-21.143553-50.326199-31.864732-84.532255-31.864732-30.422893 0-56.593949 9.058306-77.783551 26.923186-21.439288 18.075681-32.30987 40.483017-32.30987 66.597791C468.903971 567.857169 479.11759 589.598332 499.263419 607.388511zM542.897196 511.071861c9.691733-8.5487 21.695115-12.703323 36.69883-12.703323 16.410762 0 29.418007 4.9088 39.764656 15.005762 10.30674 10.058077 15.31787 22.698978 15.31787 38.646182 0 2.01489-0.448208 6.947226-2.512217 18.987447-16.307408 9.18008-33.139771 13.831007-50.068326 13.831007-14.909571 0-27.331485-4.229325-37.97387-12.93152-10.333346-8.444323-15.357779-18.113543-15.357779-29.560246C528.767384 529.680684 533.387611 519.450692 542.897196 511.071861z" p-id="5231"></path><path d="M327.746044 279.753495c27.018354 0 48.907896-21.554922 48.907896-48.131207l0-50.406017c0-26.576285-21.889543-48.109718-48.907896-48.109718-26.998911 0-48.904827 21.533432-48.904827 48.109718l0 50.406017C278.841218 258.198573 300.747133 279.753495 327.746044 279.753495z" p-id="5232"></path><path d="M693.570847 279.753495c26.999934 0 48.888454-21.554922 48.888454-48.131207l0-50.406017c0-26.576285-21.889543-48.109718-48.888454-48.109718-27.01733 0-48.925293 21.533432-48.925293 48.109718l0 50.406017C644.646578 258.198573 666.553517 279.753495 693.570847 279.753495z" p-id="5233"></path><path d="M854.35374 265.833461c0-38.809911-22.189372-56.839543-57.189514-56.839543l-28.304649-2.574638 0 24.445762c0 40.500413-33.377178 73.317843-74.513064 73.317843-41.167608 0-74.531484-32.81743-74.531484-73.317843l0-24.445762L403.055241 206.41928l0 24.445762c0 40.500413-33.380248 73.317843-74.514087 73.317843-41.167608 0-74.53046-32.81743-74.53046-73.317843l0-24.445762-27.812439 2.574638c-27.438932 0-57.204863 29.839609-57.204863 56.839543 0 0 0 451.081559 0 549.298488 0 45.409213 36.9741 75.760474 71.045079 75.760474 51.232848 0 450.361151-0.014326 538.058492-0.014326 38.931684 0 76.909647-27.267017 76.909647-70.838372C855.005586 691.809225 854.35374 265.833461 854.35374 265.833461zM818.52472 782.317589c0 50.593282-15.545044 70.685899-59.498092 70.685899-114.238834 0-380.152113 0-494.706125 0-36.868699 0-57.173141-19.296485-57.173141-56.839543 0-125.126812-1.954515-428.66399-1.954515-428.66399l613.595886 0C818.788733 367.499955 818.52472 656.972812 818.52472 782.317589z" p-id="5234"></path></svg>