<?xml version="1.0" standalone="no"?><!DOCTYPE svg PUBLIC "-//W3C//DTD SVG 1.1//EN" "http://www.w3.org/Graphics/SVG/1.1/DTD/svg11.dtd"><svg t="1505222927028" class="icon" style="" viewBox="0 0 1024 1024" version="1.1" xmlns="http://www.w3.org/2000/svg" p-id="4777" xmlns:xlink="http://www.w3.org/1999/xlink" width="200" height="200"><defs><style type="text/css"></style></defs><path d="M365.812011 733.301222c0 0.025583-0.002047 0.052189-0.002047 0.077771s0.002047 0.054235 0.002047 0.079818l0 0.38374 0.010233 0c0.248663 16.458857 13.658068 29.723975 30.175253 29.723975s29.92659-13.265118 30.175253-29.723975l0.014326 0L426.187077 487.037469l-0.004093 0c0-0.033769 0.002047-0.066515 0.002047-0.100284 0-16.672728-13.514805-30.187533-30.187533-30.187533s-30.187533 13.514805-30.187533 30.187533c0 0.033769 0.002047 0.066515 0.002047 0.100284l0 0L365.812011 733.301222z" p-id="4778"></path><path d="M640.785643 704.800098c-9.241478 7.696286-21.785166 11.598152-37.283138 11.598152-17.733896 0-36.093033-3.795443-54.794977-11.30651-0.101307-0.039909-0.190335-0.056282-0.283456-0.083911-2.956332-1.171686-6.17463-1.822508-9.547447-1.822508-14.328333 0-25.940812 11.614525-25.940812 25.940812 0 10.637268 6.401804 19.772322 15.561417 23.775496 0.013303 0.016373 0.021489 0.031722 0.048095 0.041956 24.073278 10.042727 49.309032 15.131629 75.068719 15.131629 32.072463 0 59.074444-8.93551 80.253812-26.557866 21.455661-17.859763 32.334429-40.792055 32.334429-68.161403 0-11.036357-1.882883-21.642926-5.596462-31.532157-3.737114-9.945513-9.085936-18.570961-15.897062-25.638937-5.046946-5.232165-12.193717-9.872858-21.325701-13.858636 11.332093-6.611581 20.058848-14.250562 26.02063-22.792099 7.752568-11.104919 11.682064-24.855084 11.682064-40.869826 0-26.350135-10.044774-47.450708-29.853935-62.71639-19.409049-14.953573-46.052872-22.536272-79.192643-22.536272-24.561395 0-47.589878 4.468778-68.443835 13.282514l-3.124154 1.321088 0.025583 0.094144c-8.951883 3.416819-15.311731 12.078083-15.311731 22.230304 0 13.139252 10.650571 23.790846 23.791869 23.790846 4.212952 0 8.167007-1.100054 11.600199-3.0208 0.290619 0.037862 0.572028 0.019443 0.839111-0.074701 16.119119-5.649674 31.099299-8.505721 44.673455-8.505721 16.786315 0 30.435173 3.821025 40.564881 11.356652 9.801227 7.291057 14.56574 16.476253 14.56574 28.079522 0 12.942777-4.868891 22.502503-14.883989 29.226648-9.109472 6.116301-22.210861 9.619078-39.019689 10.451026-0.036839 0.002047-0.066515 0.016373-0.101307 0.021489-12.960173 1.130753-23.127743 12.003382-23.127743 25.255197 0 13.582343 10.674107 24.666796 24.091698 25.326828 18.630313 2.224668 26.628474 4.187369 30.0412 5.502317 5.370311 2.076288 10.350742 5.372358 14.802124 9.79304 7.580652 7.882528 11.266601 16.817014 11.266601 27.309996C654.293285 687.434591 649.873626 697.231725 640.785643 704.800098z" p-id="4779"></path><path d="M327.746044 279.753495c27.018354 0 48.907896-21.554922 48.907896-48.131207l0-50.406017c0-26.576285-21.889543-48.109718-48.907896-48.109718-26.998911 0-48.904827 21.533432-48.904827 48.109718l0 50.406017C278.841218 258.198573 300.747133 279.753495 327.746044 279.753495z" p-id="4780"></path><path d="M693.570847 279.753495c26.999934 0 48.88743-21.554922 48.88743-48.131207l0-50.406017c0-26.576285-21.88852-48.109718-48.88743-48.109718-27.018354 0-48.925293 21.533432-48.925293 48.109718l0 50.406017C644.646578 258.198573 666.552493 279.753495 693.570847 279.753495z" p-id="4781"></path><path d="M854.35374 265.833461c0-38.809911-22.189372-56.839543-57.190537-56.839543l-28.304649-2.574638 0 24.445762c0 40.500413-33.377178 73.317843-74.513064 73.317843-41.166585 0-74.531484-32.81743-74.531484-73.317843l0-24.445762L403.055241 206.41928l0 24.445762c0 40.500413-33.380248 73.317843-74.514087 73.317843-41.167608 0-74.53046-32.81743-74.53046-73.317843l0-24.445762-27.812439 2.574638c-27.438932 0-57.204863 29.839609-57.204863 56.839543 0 0 0 451.081559 0 549.298488 0 45.409213 36.9741 75.760474 71.045079 75.760474 51.232848 0 450.361151-0.014326 538.057469-0.014326 38.931684 0 76.910671-27.267017 76.910671-70.838372C855.005586 691.809225 854.35374 265.833461 854.35374 265.833461zM818.523697 782.317589c0 50.593282-15.544021 70.685899-59.498092 70.685899-114.238834 0-380.15109 0-494.705102 0-36.868699 0-57.173141-19.296485-57.173141-56.839543 0-125.126812-1.954515-428.66399-1.954515-428.66399l613.595886 0C818.788733 367.499955 818.523697 656.972812 818.523697 782.317589z" p-id="4782"></path></svg>