<?xml version="1.0" standalone="no"?><!DOCTYPE svg PUBLIC "-//W3C//DTD SVG 1.1//EN" "http://www.w3.org/Graphics/SVG/1.1/DTD/svg11.dtd"><svg t="1505222941020" class="icon" style="" viewBox="0 0 1024 1024" version="1.1" xmlns="http://www.w3.org/2000/svg" p-id="5003" xmlns:xlink="http://www.w3.org/1999/xlink" width="200" height="200"><defs><style type="text/css"></style></defs><path d="M363.144252 732.493833c0 0.054235 0.004093 0.106424 0.004093 0.157589l0 0.305969 0.008186 0c0.248663 16.458857 13.661138 29.723975 30.175253 29.723975 16.517185 0 29.92659-13.265118 30.175253-29.723975l0.016373 0L423.523411 486.150262l-0.00614 0c0-0.033769 0.002047-0.066515 0.002047-0.100284 0-16.672728-13.514805-30.187533-30.187533-30.187533-16.670681 0-30.187533 13.514805-30.187533 30.187533 0 0.053212 0.004093 0.105401 0.004093 0.157589l0 246.12663C363.148345 732.389456 363.144252 732.441645 363.144252 732.493833z" p-id="5004"></path><path d="M526.400476 751.954047c0.161682 0.125867 0.346901 0.237407 0.576121 0.319272 22.922059 8.17417 46.62797 12.30935 70.662363 12.30935 35.335786 0 64.60439-9.205663 86.9974-27.363208 22.714328-18.417465 34.232662-42.651402 34.232662-72.025407 0-28.528754-11.654434-52.336996-34.640961-70.76367-22.650883-18.143219-51.798736-27.345812-86.62901-27.345812-1.87879 0-3.755534 0.037862-5.619998 0.11154l0-64.578808 91.802846 0c0.039909 0 0.078795 0.00307 0.118704 0.00307s0.078795-0.00307 0.118704-0.00307l0.778736 0 0-0.019443c12.863982-0.472767 23.150256-11.045567 23.150256-24.02723 0-12.980639-10.286274-23.553439-23.150256-24.026206l0-0.022513-143.007041 0 0 0c-0.001023 0-0.001023 0-0.002047 0-3.082198 0-5.580089 2.498914-5.580089 5.581112 0 0.073678 0.008186 0.146333 0.011256 0.218988l-0.011256-0.001023 0 149.509129c0 4.64888 3.76986 8.41874 8.41874 8.41874 0.883113 0 1.733481-0.1361 2.533706-0.38988 0.001023 0 0.002047 0 0.00307 0 5.810333-1.400906 16.179494-2.677992 34.670637-2.677992 22.007223 0 40.556695 5.018294 55.132668 14.913665 14.140045 9.611915 21.015639 21.093411 21.015639 35.100426 0 13.510712-6.30152 24.677029-19.260669 34.138518-13.271258 9.685593-30.027897 14.59644-49.804313 14.59644-15.236006 0-30.891568-2.925632-46.772256-8.725732-0.240477-0.088004-0.464581-0.146333-0.677429-0.184195-2.323928-0.725524-4.795213-1.11745-7.356548-1.11745-13.610996 0-24.64326 11.032264-24.64326 24.64326C509.466806 739.462548 516.568551 748.716306 526.400476 751.954047z" p-id="5005"></path><path d="M327.746044 279.753495c27.018354 0 48.907896-21.554922 48.907896-48.131207l0-50.406017c0-26.576285-21.889543-48.109718-48.907896-48.109718-26.998911 0-48.904827 21.533432-48.904827 48.109718l0 50.406017C278.841218 258.198573 300.747133 279.753495 327.746044 279.753495z" p-id="5006"></path><path d="M693.570847 279.753495c26.999934 0 48.88743-21.554922 48.88743-48.131207l0-50.406017c0-26.576285-21.88852-48.109718-48.88743-48.109718-27.019377 0-48.925293 21.533432-48.925293 48.109718l0 50.406017C644.646578 258.198573 666.55147 279.753495 693.570847 279.753495z" p-id="5007"></path><path d="M854.35374 265.833461c0-38.809911-22.189372-56.839543-57.190537-56.839543l-28.304649-2.574638 0 24.445762c0 40.500413-33.377178 73.317843-74.513064 73.317843-41.166585 0-74.531484-32.81743-74.531484-73.317843l0-24.445762L403.055241 206.41928l0 24.445762c0 40.500413-33.380248 73.317843-74.514087 73.317843-41.167608 0-74.53046-32.81743-74.53046-73.317843l0-24.445762-27.812439 2.574638c-27.438932 0-57.204863 29.839609-57.204863 56.839543 0 0 0 451.081559 0 549.298488 0 45.409213 36.9741 75.760474 71.044056 75.760474 51.232848 0 450.362174-0.014326 538.058492-0.014326 38.931684 0 76.910671-27.267017 76.910671-70.838372C855.005586 691.809225 854.35374 265.833461 854.35374 265.833461zM818.523697 782.317589c0 50.593282-15.544021 70.685899-59.499116 70.685899-114.238834 0-380.150066 0-494.705102 0-36.868699 0-57.173141-19.296485-57.173141-56.839543 0-125.126812-1.954515-428.66399-1.954515-428.66399l613.595886 0C818.788733 367.499955 818.523697 656.972812 818.523697 782.317589z" p-id="5008"></path></svg>