<?xml version="1.0" standalone="no"?><!DOCTYPE svg PUBLIC "-//W3C//DTD SVG 1.1//EN" "http://www.w3.org/Graphics/SVG/1.1/DTD/svg11.dtd"><svg t="1505222903752" class="icon" style="" viewBox="0 0 1024 1024" version="1.1" xmlns="http://www.w3.org/2000/svg" p-id="4438" xmlns:xlink="http://www.w3.org/1999/xlink" width="200" height="200"><defs><style type="text/css"></style></defs><path d="M327.746044 279.753495c27.018354 0 48.907896-21.554922 48.907896-48.131207l0-50.406017c0-26.576285-21.889543-48.109718-48.907896-48.109718-26.998911 0-48.904827 21.533432-48.904827 48.109718l0 50.406017C278.841218 258.198573 300.747133 279.753495 327.746044 279.753495z" p-id="4439"></path><path d="M854.35374 265.833461c0-38.809911-22.189372-56.839543-57.190537-56.839543l-28.304649-2.574638 0 24.445762c0 40.500413-33.377178 73.317843-74.513064 73.317843-41.166585 0-74.531484-32.81743-74.531484-73.317843l0-24.445762L403.055241 206.41928l0 24.445762c0 40.500413-33.380248 73.317843-74.514087 73.317843-41.167608 0-74.53046-32.81743-74.53046-73.317843l0-24.445762-27.812439 2.574638c-27.438932 0-57.204863 29.839609-57.204863 56.839543 0 0 0 451.081559 0 549.298488 0 45.409213 36.9741 75.760474 71.045079 75.760474 51.232848 0 450.361151-0.014326 538.057469-0.014326 38.931684 0 76.910671-27.267017 76.910671-70.838372C855.005586 691.809225 854.35374 265.833461 854.35374 265.833461zM818.523697 782.317589c0 50.593282-15.544021 70.685899-59.498092 70.685899-114.238834 0-380.15109 0-494.705102 0-36.868699 0-57.173141-19.296485-57.173141-56.839543 0-125.126812-1.954515-428.66399-1.954515-428.66399l613.595886 0C818.788733 367.499955 818.523697 656.972812 818.523697 782.317589z" p-id="4440"></path><path d="M693.570847 279.753495c26.999934 0 48.88743-21.554922 48.88743-48.131207l0-50.406017c0-26.576285-21.88852-48.109718-48.88743-48.109718-27.018354 0-48.925293 21.533432-48.925293 48.109718l0 50.406017C644.646578 258.198573 666.552493 279.753495 693.570847 279.753495z" p-id="4441"></path><path d="M609.60448 768.18573c34.83232 0 63.547315-14.938224 85.34476-44.396139 21.450545-28.980032 32.327266-67.000973 32.327266-113.001657 0-44.851511-10.870582-82.467223-32.307823-111.801319-21.802562-29.830399-49.850361-44.956911-83.365686-44.956911-35.322483 0-64.414055 14.9679-86.467327 44.490284-21.703301 29.052686-32.707936 67.112514-32.707936 113.12343 0 46.566572 10.666944 84.584444 31.703049 113.001657C545.519929 753.535055 574.275857 768.18573 609.60448 768.18573zM568.49213 532.196994c10.354835-18.513656 23.798009-27.513634 41.095977-27.513634l2.501984 0c16.22145 0 28.904307 9.134031 38.777165 27.92091 10.299577 19.61064 15.522532 46.530756 15.522532 80.013335 0 33.305547-5.412266 59.903322-16.086373 79.054497-10.268878 18.433838-23.74889 27.393907-41.210587 27.393907-17.455557 0-30.851659-8.951883-40.955784-27.365254-10.514471-19.153222-15.844873-46.191018-15.844873-80.361259C552.291147 578.029856 557.741275 551.404452 568.49213 532.196994z" p-id="4442"></path><path d="M354.736768 734.330668c0 0.039909 0.00307 0.079818 0.00307 0.119727l0 0.341784 0.008186 0c0.24764 16.45681 13.659091 29.726022 30.176276 29.726022 16.518209 0 29.928636-13.269211 30.176276-29.726022l0.014326 0L415.114904 487.986073l-0.005117 0c0-0.033769 0.002047-0.066515 0.002047-0.101307 0-16.671705-13.514805-30.187533-30.187533-30.187533-16.671705 0-30.187533 13.515828-30.187533 30.187533 0 0.039909 0.00307 0.078795 0.00307 0.118704l0 246.208495C354.739838 734.252897 354.736768 734.290759 354.736768 734.330668z" p-id="4443"></path></svg>