<?xml version="1.0" standalone="no"?><!DOCTYPE svg PUBLIC "-//W3C//DTD SVG 1.1//EN" "http://www.w3.org/Graphics/SVG/1.1/DTD/svg11.dtd"><svg t="1505223409961" class="icon" style="" viewBox="0 0 1024 1024" version="1.1" xmlns="http://www.w3.org/2000/svg" p-id="47700" xmlns:xlink="http://www.w3.org/1999/xlink" width="200" height="200"><defs><style type="text/css"></style></defs><path d="M326.243831 731.154325c0 0.054235 0.004093 0.106424 0.004093 0.157589l0 0.303922 0.007163 0c0.24764 16.45681 13.660114 29.726022 30.176276 29.726022 16.518209 0 29.928636-13.269211 30.176276-29.726022l0.01535 0L386.62299 484.810754l-0.00614 0c0-0.033769 0.002047-0.066515 0.002047-0.100284 0-16.672728-13.514805-30.187533-30.187533-30.187533-16.670681 0-30.187533 13.514805-30.187533 30.187533 0 0.053212 0.004093 0.105401 0.004093 0.157589l0 246.127653C326.247924 731.050971 326.243831 731.102137 326.243831 731.154325z" p-id="47701"></path><path d="M504.03305 735.287459c21.132296 20.506033 49.107441 30.902824 83.148745 30.902824 30.429033 0 56.67786-9.129938 78.016865-27.139104 21.603017-18.231223 32.555463-40.794102 32.555463-67.060325 0-25.517163-10.091846-47.340191-29.995151-64.862263-19.716041-17.356296-44.240597-26.15673-72.894194-26.15673-15.075347 0-30.357402 2.625804-45.574988 7.821129 8.786107-18.145266 20.364817-34.358529 34.521235-48.315402 15.110139-14.896268 33.929764-28.957519 56.027038-41.885969 8.370645-4.486174 14.06432-13.314237 14.06432-23.474644 0-14.699794-11.917424-26.617218-26.618241-26.617218-5.476735 0-10.56359 1.654686-14.794961 4.489244l-3.752464 2.240017c-29.747511 17.750269-54.862515 37.331233-74.65121 58.20361-19.878746 20.966521-35.331693 43.789319-45.930075 67.834968-10.643408 24.14798-16.040325 48.783053-16.040325 73.222675C472.115106 687.552272 482.853681 714.735377 504.03305 735.287459zM533.460266 645.23242c10.063193-5.674233 18.566868-9.629311 25.299199-11.768021 7.049556-2.238994 15.057951-3.373841 23.802102-3.373841 16.869203 0 30.53955 4.114714 40.628326 12.229532 9.893324 7.958252 14.70184 18.079774 14.70184 30.940686 0 12.688997-4.544503 22.900569-13.896498 31.216979-9.528004 8.473999-21.36561 12.593829-36.189224 12.593829-16.612353 0-29.797653-4.856611-40.310078-14.852266-10.441816-9.920954-15.516392-22.282492-15.516392-37.792745C531.978519 657.44865 532.476869 651.004891 533.460266 645.23242z" p-id="47702"></path><path d="M693.570847 279.753495c26.999934 0 48.88743-21.554922 48.88743-48.131207l0-50.406017c0-26.576285-21.88852-48.109718-48.88743-48.109718-27.018354 0-48.925293 21.533432-48.925293 48.109718l0 50.406017C644.646578 258.198573 666.552493 279.753495 693.570847 279.753495z" p-id="47703"></path><path d="M327.746044 279.753495c27.018354 0 48.907896-21.554922 48.907896-48.131207l0-50.406017c0-26.576285-21.889543-48.109718-48.907896-48.109718-26.998911 0-48.904827 21.533432-48.904827 48.109718l0 50.406017C278.841218 258.198573 300.747133 279.753495 327.746044 279.753495z" p-id="47704"></path><path d="M854.35374 265.833461c0-38.809911-22.189372-56.839543-57.190537-56.839543l-28.304649-2.574638 0 24.445762c0 40.500413-33.377178 73.317843-74.513064 73.317843-41.166585 0-74.531484-32.81743-74.531484-73.317843l0-24.445762L403.055241 206.41928l0 24.445762c0 40.500413-33.380248 73.317843-74.514087 73.317843-41.167608 0-74.53046-32.81743-74.53046-73.317843l0-24.445762-27.812439 2.574638c-27.438932 0-57.204863 29.839609-57.204863 56.839543 0 0 0 451.081559 0 549.298488 0 45.409213 36.9741 75.760474 71.045079 75.760474 51.232848 0 450.361151-0.014326 538.057469-0.014326 38.931684 0 76.910671-27.267017 76.910671-70.838372C855.005586 691.809225 854.35374 265.833461 854.35374 265.833461zM818.523697 782.317589c0 50.593282-15.544021 70.685899-59.498092 70.685899-114.238834 0-380.15109 0-494.705102 0-36.868699 0-57.173141-19.296485-57.173141-56.839543 0-125.126812-1.954515-428.66399-1.954515-428.66399l613.595886 0C818.788733 367.499955 818.523697 656.972812 818.523697 782.317589z" p-id="47705"></path></svg>