<?xml version="1.0" standalone="no"?><!DOCTYPE svg PUBLIC "-//W3C//DTD SVG 1.1//EN" "http://www.w3.org/Graphics/SVG/1.1/DTD/svg11.dtd"><svg t="1505222967123" class="icon" style="" viewBox="0 0 1024 1024" version="1.1" xmlns="http://www.w3.org/2000/svg" p-id="5116" xmlns:xlink="http://www.w3.org/1999/xlink" width="200" height="200"><defs><style type="text/css"></style></defs><path d="M323.791989 728.046544c0 0.039909 0.00307 0.079818 0.00307 0.119727l0 0.341784 0.008186 0c0.24764 16.45681 13.659091 29.726022 30.176276 29.726022s29.928636-13.269211 30.176276-29.726022l0.014326 0L384.170125 481.702973l-0.005117 0c0-0.033769 0.002047-0.066515 0.002047-0.101307 0-16.671705-13.515828-30.187533-30.187533-30.187533s-30.187533 13.515828-30.187533 30.187533c0 0.039909 0.00307 0.078795 0.00307 0.118704l0 246.208495C323.795059 727.968773 323.791989 728.006636 323.791989 728.046544z" p-id="5117"></path><path d="M493.013065 503.071653c0.13303 0 0.26299-0.008186 0.394996-0.010233l122.449843 0-95.505167 214.338646 0.10847 0.069585c-1.680269 3.62762-2.623757 7.66661-2.623757 11.927657 0 15.697517 12.724813 28.420283 28.421306 28.420283 10.426467 0 19.537985-5.617951 24.483624-13.990642l0.00307 0.00614 0.028653-0.062422c0.920976-1.566682 1.695618-3.229554 2.306532-4.970198L698.727287 467.925179l0.036839-0.074701c0.909719-1.528819 1.441838-3.306302 1.441838-5.213745 0-5.646604-4.583388-10.224876-10.240225-10.228969l0 0L493.605559 452.407764c-0.197498-0.004093-0.393973-0.01535-0.592494-0.01535-13.994736 0-25.339108 11.345396-25.339108 25.340131S479.01833 503.071653 493.013065 503.071653z" p-id="5118"></path><path d="M693.570847 279.753495c26.999934 0 48.88743-21.554922 48.88743-48.131207l0-50.406017c0-26.576285-21.88852-48.109718-48.88743-48.109718-27.018354 0-48.925293 21.533432-48.925293 48.109718l0 50.406017C644.646578 258.198573 666.552493 279.753495 693.570847 279.753495z" p-id="5119"></path><path d="M854.35374 265.833461c0-38.809911-22.189372-56.839543-57.190537-56.839543l-28.304649-2.574638 0 24.445762c0 40.500413-33.377178 73.317843-74.513064 73.317843-41.166585 0-74.531484-32.81743-74.531484-73.317843l0-24.445762L403.055241 206.41928l0 24.445762c0 40.500413-33.380248 73.317843-74.514087 73.317843-41.167608 0-74.53046-32.81743-74.53046-73.317843l0-24.445762-27.812439 2.574638c-27.438932 0-57.204863 29.839609-57.204863 56.839543 0 0 0 451.081559 0 549.298488 0 45.409213 36.9741 75.760474 71.045079 75.760474 51.232848 0 450.361151-0.014326 538.057469-0.014326 38.931684 0 76.910671-27.267017 76.910671-70.838372C855.005586 691.809225 854.35374 265.833461 854.35374 265.833461zM818.523697 782.317589c0 50.593282-15.544021 70.685899-59.498092 70.685899-114.238834 0-380.15109 0-494.705102 0-36.868699 0-57.173141-19.296485-57.173141-56.839543 0-125.126812-1.954515-428.66399-1.954515-428.66399l613.595886 0C818.788733 367.499955 818.523697 656.972812 818.523697 782.317589z" p-id="5120"></path><path d="M327.746044 279.753495c27.018354 0 48.907896-21.554922 48.907896-48.131207l0-50.406017c0-26.576285-21.889543-48.109718-48.907896-48.109718-26.998911 0-48.904827 21.533432-48.904827 48.109718l0 50.406017C278.841218 258.198573 300.747133 279.753495 327.746044 279.753495z" p-id="5121"></path></svg>