<?xml version="1.0" standalone="no"?><!DOCTYPE svg PUBLIC "-//W3C//DTD SVG 1.1//EN" "http://www.w3.org/Graphics/SVG/1.1/DTD/svg11.dtd"><svg t="1505223077202" class="icon" style="" viewBox="0 0 1024 1024" version="1.1" xmlns="http://www.w3.org/2000/svg" p-id="14744" xmlns:xlink="http://www.w3.org/1999/xlink" width="200" height="200"><defs><style type="text/css"></style></defs><path d="M384.317481 641.954771c-11.336186 14.068414-25.098631 30.065759-41.135886 47.827285-5.262864 5.829775-31.787984 28.55229-45.717228 37.434587-5.89322 3.130294-9.909697 9.323343-9.909697 16.460904 0 10.29139 8.339946 18.633383 18.633383 18.633383 0.494257 0 0.980327-0.035816 1.465374-0.073678l182.77579 0 0-0.025583c13.862729-0.295735 25.010627-11.619642 25.010627-25.555026 0-13.932314-11.148921-25.255197-25.010627-25.552979l0-0.031722-101.219309 0 2.060939-2.136663c30.055526-30.535457 51.683103-55.038524 64.284095-72.828702 12.69309-17.922185 21.699208-34.073026 26.767644-48.01148 5.100158-14.048971 7.687076-27.480888 7.687076-39.929408 0-28.077475-10.54517-51.559283-31.340799-69.792553-20.59813-18.061354-47.065945-27.220968-78.664617-27.220968-26.266224 0-52.128241 7.582699-77.029374 22.560832-0.019443 0.011256-0.029676 0.030699-0.045025 0.044002-0.836041 0.457418-1.653663 0.945535-2.429329 1.49198-6.437619 4.53427-10.642384 12.024871-10.642384 20.496823 0 13.8351 11.216459 25.050536 25.050536 25.050536 5.322216 0 10.253528-1.663896 14.310937-4.494361 1.904373-1.12052 3.826142-2.201132 5.782703-3.192715 12.799514-6.481621 25.936719-9.769504 39.045271-9.769504 17.08819 0 30.892591 4.676509 41.030485 13.898545 10.138918 9.224082 15.068184 21.182438 15.068184 36.561707 0 11.235902-2.822278 22.816658-8.385994 34.416857C416.022577 600.167039 403.424654 618.246813 384.317481 641.954771z" p-id="14745"></path><path d="M543.969621 753.495146c0.161682 0.127913 0.348947 0.2415 0.581238 0.323365 22.924105 8.17417 46.62797 12.30935 70.662363 12.30935 35.335786 0 64.606437-9.207709 86.999446-27.365254 22.714328-18.417465 34.230616-42.649356 34.230616-72.02336 0-28.528754-11.654434-52.336996-34.638915-70.76367-22.652929-18.145266-51.798736-27.345812-86.631056-27.345812-1.876744 0-3.755534 0.035816-5.619998 0.109494l0-64.576761 91.842755 0c0.025583 0 0.052189 0.002047 0.078795 0.002047s0.053212-0.002047 0.078795-0.002047l0.818645 0 0-0.020466c12.866029-0.472767 23.152303-11.044544 23.152303-24.02723 0-12.980639-10.286274-23.552415-23.152303-24.025183l0-0.022513-143.007041 0c-3.082198 0-5.582135 2.49789-5.582135 5.580089 0 0.073678 0.008186 0.146333 0.011256 0.218988l-0.011256-0.001023 0 149.508106c0 4.650927 3.76986 8.41874 8.41874 8.41874 0.881067 0 1.729387-0.1361 2.52859-0.385786 0.00307-0.002047 0.00614 0 0.010233-0.002047 5.810333-1.400906 16.179494-2.677992 34.668591-2.677992 22.007223 0 40.558741 5.016247 55.132668 14.911618 14.142092 9.613962 21.015639 21.093411 21.015639 35.102473 0 13.510712-6.299473 24.677029-19.260669 34.136471-13.271258 9.68764-30.02585 14.598486-49.804313 14.598486-15.233959 0-30.889521-2.927679-46.77021-8.725732-0.234337-0.083911-0.450255-0.140193-0.657986-0.178055-2.329045-0.729617-4.806469-1.125637-7.377014-1.125637-13.610996 0-24.645306 11.034311-24.645306 24.645306C527.041066 741.005694 534.139741 750.255359 543.969621 753.495146z" p-id="14746"></path><path d="M693.570847 279.753495c26.999934 0 48.88743-21.554922 48.88743-48.131207l0-50.406017c0-26.576285-21.88852-48.109718-48.88743-48.109718-27.018354 0-48.925293 21.533432-48.925293 48.109718l0 50.406017C644.646578 258.198573 666.552493 279.753495 693.570847 279.753495z" p-id="14747"></path><path d="M327.746044 279.753495c27.018354 0 48.907896-21.554922 48.907896-48.131207l0-50.406017c0-26.576285-21.889543-48.109718-48.907896-48.109718-26.998911 0-48.904827 21.533432-48.904827 48.109718l0 50.406017C278.841218 258.198573 300.747133 279.753495 327.746044 279.753495z" p-id="14748"></path><path d="M854.35374 265.833461c0-38.809911-22.189372-56.839543-57.190537-56.839543l-28.304649-2.574638 0 24.445762c0 40.500413-33.377178 73.317843-74.513064 73.317843-41.166585 0-74.531484-32.81743-74.531484-73.317843l0-24.445762L403.055241 206.41928l0 24.445762c0 40.500413-33.380248 73.317843-74.514087 73.317843-41.167608 0-74.53046-32.81743-74.53046-73.317843l0-24.445762-27.812439 2.574638c-27.438932 0-57.204863 29.839609-57.204863 56.839543 0 0 0 451.081559 0 549.298488 0 45.409213 36.9741 75.760474 71.045079 75.760474 51.232848 0 450.361151-0.014326 538.057469-0.014326 38.931684 0 76.910671-27.267017 76.910671-70.838372C855.005586 691.809225 854.35374 265.833461 854.35374 265.833461zM818.523697 782.317589c0 50.593282-15.544021 70.685899-59.498092 70.685899-114.238834 0-380.15109 0-494.705102 0-36.868699 0-57.173141-19.296485-57.173141-56.839543 0-125.126812-1.954515-428.66399-1.954515-428.66399l613.595886 0C818.788733 367.499955 818.523697 656.972812 818.523697 782.317589z" p-id="14749"></path></svg>