<?xml version="1.0" standalone="no"?><!DOCTYPE svg PUBLIC "-//W3C//DTD SVG 1.1//EN" "http://www.w3.org/Graphics/SVG/1.1/DTD/svg11.dtd"><svg t="1505223011529" class="icon" style="" viewBox="0 0 1024 1024" version="1.1" xmlns="http://www.w3.org/2000/svg" p-id="6816" xmlns:xlink="http://www.w3.org/1999/xlink" width="200" height="200"><defs><style type="text/css"></style></defs><path d="M622.04072 765.247818c34.833343 0 63.548338-14.936177 85.34476-44.396139 21.450545-28.980032 32.327266-66.998927 32.327266-113.001657 0-44.851511-10.870582-82.4662-32.307823-111.800295-21.802562-29.830399-49.850361-44.956911-83.365686-44.956911-35.322483 0-64.414055 14.968923-86.467327 44.490284-21.703301 29.05371-32.707936 67.113537-32.707936 113.122407 0 46.566572 10.666944 84.58649 31.703049 113.003703C557.95617 750.59919 586.714144 765.247818 622.04072 765.247818zM580.928371 529.259082c10.354835-18.512632 23.798009-27.51261 41.095977-27.51261l2.501984 0c16.22145 0 28.904307 9.134031 38.777165 27.921933 10.299577 19.61064 15.522532 46.530756 15.522532 80.011288 0 33.305547-5.412266 59.903322-16.086373 79.054497-10.268878 18.433838-23.74889 27.393907-41.210587 27.393907-17.455557 0-30.851659-8.949836-40.955784-27.365254-10.513448-19.153222-15.844873-46.191018-15.844873-80.361259C564.727387 575.09399 570.177516 548.46654 580.928371 529.259082z" p-id="6817"></path><path d="M284.28623 743.383858c0 10.29139 8.341992 18.635429 18.633383 18.635429 0.494257 0 0.979304-0.035816 1.464351-0.073678l182.777837 0 0-0.027629c13.862729-0.295735 25.010627-11.618619 25.010627-25.552979 0-13.932314-11.148921-25.255197-25.010627-25.552979l0-0.031722-101.218286 0 2.059915-2.13871c30.055526-30.535457 51.683103-55.038524 64.283072-72.828702 12.694113-17.920138 21.700231-34.073026 26.768667-48.01148 5.099135-14.048971 7.686053-27.480888 7.686053-39.927361 0-28.078499-10.544147-51.561329-31.338752-69.794599-20.599154-18.061354-47.065945-27.219945-78.666664-27.219945-26.2652 0-52.127218 7.581676-77.028351 22.559808-0.019443 0.011256-0.029676 0.030699-0.045025 0.044002-0.837064 0.456395-1.654686 0.945535-2.430352 1.49198-6.436596 4.53427-10.642384 12.024871-10.642384 20.496823 0 13.8351 11.216459 25.051559 25.052582 25.051559 5.321192 0 10.251481-1.663896 14.308891-4.494361 1.904373-1.121544 3.827165-2.202155 5.78475-3.193739 12.798491-6.481621 25.934672-9.768481 39.043225-9.768481 17.089214 0 30.893614 4.675486 41.031509 13.897521 10.137895 9.224082 15.06716 21.182438 15.06716 36.563754 0 11.234879-2.821255 22.814612-8.384971 34.414811-5.737678 11.948123-18.3356 30.027897-37.44175 53.735855-11.338233 14.068414-25.098631 30.065759-41.136909 47.827285-5.262864 5.829775-31.78696 28.554336-45.718251 37.434587l0.001023 0.002047C288.302707 730.055295 284.28623 736.249367 284.28623 743.383858z" p-id="6818"></path><path d="M693.570847 279.753495c26.999934 0 48.88743-21.554922 48.88743-48.131207l0-50.406017c0-26.576285-21.88852-48.109718-48.88743-48.109718-27.018354 0-48.925293 21.533432-48.925293 48.109718l0 50.406017C644.646578 258.198573 666.552493 279.753495 693.570847 279.753495z" p-id="6819"></path><path d="M854.35374 265.833461c0-38.809911-22.189372-56.839543-57.190537-56.839543l-28.304649-2.574638 0 24.445762c0 40.500413-33.377178 73.317843-74.513064 73.317843-41.166585 0-74.531484-32.81743-74.531484-73.317843l0-24.445762L403.055241 206.41928l0 24.445762c0 40.500413-33.380248 73.317843-74.514087 73.317843-41.167608 0-74.53046-32.81743-74.53046-73.317843l0-24.445762-27.812439 2.574638c-27.438932 0-57.204863 29.839609-57.204863 56.839543 0 0 0 451.081559 0 549.298488 0 45.409213 36.9741 75.760474 71.045079 75.760474 51.232848 0 450.361151-0.014326 538.057469-0.014326 38.931684 0 76.910671-27.267017 76.910671-70.838372C855.005586 691.809225 854.35374 265.833461 854.35374 265.833461zM818.523697 782.317589c0 50.593282-15.544021 70.685899-59.498092 70.685899-114.238834 0-380.15109 0-494.705102 0-36.868699 0-57.173141-19.296485-57.173141-56.839543 0-125.126812-1.954515-428.66399-1.954515-428.66399l613.595886 0C818.788733 367.499955 818.523697 656.972812 818.523697 782.317589z" p-id="6820"></path><path d="M327.746044 279.753495c27.018354 0 48.907896-21.554922 48.907896-48.131207l0-50.406017c0-26.576285-21.889543-48.109718-48.907896-48.109718-26.998911 0-48.904827 21.533432-48.904827 48.109718l0 50.406017C278.841218 258.198573 300.747133 279.753495 327.746044 279.753495z" p-id="6821"></path></svg>