<?xml version="1.0" standalone="no"?><!DOCTYPE svg PUBLIC "-//W3C//DTD SVG 1.1//EN" "http://www.w3.org/Graphics/SVG/1.1/DTD/svg11.dtd"><svg t="1505223086934" class="icon" style="" viewBox="0 0 1024 1024" version="1.1" xmlns="http://www.w3.org/2000/svg" p-id="16311" xmlns:xlink="http://www.w3.org/1999/xlink" width="200" height="200"><defs><style type="text/css"></style></defs><path d="M285.570479 744.633315c0 10.29139 8.341992 18.635429 18.633383 18.635429 0.493234 0 0.979304-0.035816 1.464351-0.073678l182.777837 0 0-0.027629c13.862729-0.295735 25.009603-11.618619 25.009603-25.552979 0-13.932314-11.147898-25.255197-25.009603-25.552979l0-0.031722-101.218286 0 2.059915-2.13871c30.054503-30.535457 51.68208-55.038524 64.283072-72.828702 12.694113-17.920138 21.700231-34.073026 26.767644-48.01148 5.100158-14.048971 7.687076-27.480888 7.687076-39.927361 0-28.078499-10.544147-51.561329-31.338752-69.794599-20.6012-18.061354-47.065945-27.219945-78.666664-27.219945-26.266224 0-52.129264 7.581676-77.029374 22.559808-0.020466 0.011256-0.028653 0.030699-0.045025 0.044002-0.837064 0.457418-1.654686 0.945535-2.430352 1.49198-6.436596 4.53427-10.641361 12.024871-10.641361 20.496823 0 13.8351 11.216459 25.051559 25.052582 25.051559 5.320169 0 10.249435-1.663896 14.305821-4.492314 1.906419-1.121544 3.829212-2.203178 5.78782-3.195785 12.797467-6.481621 25.934672-9.768481 39.043225-9.768481 17.08819 0 30.893614 4.675486 41.029462 13.897521 10.139941 9.224082 15.069207 21.182438 15.069207 36.563754 0 11.234879-2.822278 22.814612-8.385994 34.414811-5.736655 11.948123-18.334577 30.027897-37.440727 53.735855-11.338233 14.068414-25.099654 30.065759-41.136909 47.827285-5.262864 5.829775-31.78696 28.554336-45.718251 37.434587l0.001023 0.002047C289.587979 731.304751 285.570479 737.4978 285.570479 744.633315z" p-id="16312"></path><path d="M544.706401 735.593428c21.131273 20.506033 49.107441 30.902824 83.147722 30.902824 30.430056 0 56.678884-9.129938 78.018911-27.139104 21.601994-18.231223 32.55444-40.794102 32.55444-67.060325 0-25.517163-10.091846-47.340191-29.995151-64.862263-19.716041-17.356296-44.240597-26.15673-72.894194-26.15673-15.075347 0-30.357402 2.625804-45.574988 7.821129 8.78713-18.145266 20.364817-34.358529 34.521235-48.315402 15.111163-14.896268 33.929764-28.957519 56.027038-41.885969 8.370645-4.486174 14.06432-13.314237 14.06432-23.474644 0-14.699794-11.917424-26.617218-26.618241-26.617218-5.476735 0-10.56359 1.655709-14.795984 4.490268l-3.752464 2.238994c-29.746488 17.750269-54.861492 37.331233-74.649164 58.20361-19.87977 20.966521-35.332716 43.789319-45.931099 67.834968-10.643408 24.14798-16.040325 48.783053-16.040325 73.222675C512.788457 687.85824 523.527033 715.041346 544.706401 735.593428zM574.133617 645.538389c10.063193-5.674233 18.566868-9.629311 25.299199-11.765975 7.05058-2.238994 15.057951-3.375887 23.802102-3.375887 16.869203 0 30.538527 4.114714 40.628326 12.229532 9.892301 7.958252 14.70184 18.079774 14.70184 30.940686 0 12.688997-4.545526 22.900569-13.896498 31.216979-9.528004 8.473999-21.366633 12.593829-36.189224 12.593829-16.612353 0-29.79663-4.856611-40.310078-14.852266-10.440793-9.920954-15.516392-22.282492-15.516392-37.792745C572.65187 657.756665 573.15022 651.310859 574.133617 645.538389z" p-id="16313"></path><path d="M854.35374 265.833461c0-38.809911-22.189372-56.839543-57.190537-56.839543l-28.304649-2.574638 0 24.445762c0 40.500413-33.377178 73.317843-74.513064 73.317843-41.166585 0-74.531484-32.81743-74.531484-73.317843l0-24.445762L403.055241 206.41928l0 24.445762c0 40.500413-33.380248 73.317843-74.514087 73.317843-41.167608 0-74.53046-32.81743-74.53046-73.317843l0-24.445762-27.812439 2.574638c-27.438932 0-57.204863 29.839609-57.204863 56.839543 0 0 0 451.081559 0 549.298488 0 45.409213 36.9741 75.760474 71.044056 75.760474 51.232848 0 450.362174-0.014326 538.058492-0.014326 38.931684 0 76.910671-27.267017 76.910671-70.838372C855.005586 691.809225 854.35374 265.833461 854.35374 265.833461zM818.523697 782.317589c0 50.593282-15.544021 70.685899-59.499116 70.685899-114.238834 0-380.150066 0-494.705102 0-36.868699 0-57.173141-19.296485-57.173141-56.839543 0-125.126812-1.954515-428.66399-1.954515-428.66399l613.595886 0C818.788733 367.499955 818.523697 656.972812 818.523697 782.317589z" p-id="16314"></path><path d="M693.570847 279.753495c26.999934 0 48.88743-21.554922 48.88743-48.131207l0-50.406017c0-26.576285-21.88852-48.109718-48.88743-48.109718-27.019377 0-48.925293 21.533432-48.925293 48.109718l0 50.406017C644.646578 258.198573 666.55147 279.753495 693.570847 279.753495z" p-id="16315"></path><path d="M327.746044 279.753495c27.018354 0 48.907896-21.554922 48.907896-48.131207l0-50.406017c0-26.576285-21.889543-48.109718-48.907896-48.109718-26.998911 0-48.904827 21.533432-48.904827 48.109718l0 50.406017C278.841218 258.198573 300.747133 279.753495 327.746044 279.753495z" p-id="16316"></path></svg>