<?xml version="1.0" standalone="no"?><!DOCTYPE svg PUBLIC "-//W3C//DTD SVG 1.1//EN" "http://www.w3.org/Graphics/SVG/1.1/DTD/svg11.dtd"><svg t="1505223045123" class="icon" style="" viewBox="0 0 1024 1024" version="1.1" xmlns="http://www.w3.org/2000/svg" p-id="9943" xmlns:xlink="http://www.w3.org/1999/xlink" width="200" height="200"><defs><style type="text/css"></style></defs><path d="M516.865309 744.614895c0 10.29139 8.340969 18.635429 18.633383 18.635429 0.493234 0 0.979304-0.035816 1.464351-0.073678l182.777837 0 0-0.027629c13.862729-0.295735 25.009603-11.618619 25.009603-25.552979 0-13.932314-11.147898-25.255197-25.009603-25.552979l0-0.031722-101.219309 0 2.060939-2.13871c30.054503-30.535457 51.68208-55.038524 64.283072-72.828702 12.694113-17.920138 21.700231-34.073026 26.767644-48.01148 5.100158-14.048971 7.687076-27.480888 7.687076-39.927361 0-28.078499-10.544147-51.561329-31.339776-69.794599-20.599154-18.061354-47.065945-27.219945-78.665641-27.219945-26.266224 0-52.128241 7.581676-77.029374 22.558785-0.020466 0.01228-0.030699 0.031722-0.048095 0.047072-0.835018 0.456395-1.651616 0.943488-2.426259 1.489934-6.437619 4.535293-10.642384 12.023848-10.642384 20.4958 0 13.836123 11.216459 25.052582 25.051559 25.052582 5.322216 0 10.253528-1.664919 14.310937-4.495384 1.904373-1.12052 3.825119-2.201132 5.782703-3.192715 12.798491-6.482645 25.935696-9.768481 39.044248-9.768481 17.08819 0 30.893614 4.674463 41.030485 13.898545 10.138918 9.222035 15.068184 21.181415 15.068184 36.56273 0 11.234879-2.822278 22.814612-8.385994 34.414811-5.736655 11.948123-18.334577 30.027897-37.44175 53.737902-11.337209 14.066367-25.098631 30.063713-41.135886 47.825238-5.262864 5.829775-31.787984 28.554336-45.718251 37.434587l0.001023 0.002047C520.882809 731.286332 516.865309 737.480404 516.865309 744.614895z" p-id="9944"></path><path d="M279.248494 744.653781c0 10.29139 8.341992 18.633383 18.633383 18.633383 0.494257 0 0.979304-0.035816 1.465374-0.073678L482.124064 763.213485l0-0.027629c13.862729-0.295735 25.010627-11.618619 25.010627-25.552979 0-13.932314-11.148921-25.255197-25.010627-25.552979l0-0.031722-101.218286 0 2.059915-2.136663c30.055526-30.537504 51.683103-55.038524 64.283072-72.828702 12.694113-17.922185 21.700231-34.075073 26.768667-48.01148 5.099135-14.048971 7.686053-27.482935 7.686053-39.929408 0-28.077475-10.544147-51.560306-31.338752-69.793576-20.599154-18.061354-47.065945-27.220968-78.666664-27.220968-26.2652 0-52.127218 7.582699-77.028351 22.560832-0.019443 0.011256-0.028653 0.029676-0.045025 0.044002-0.837064 0.457418-1.654686 0.945535-2.430352 1.49198-6.436596 4.53427-10.642384 12.024871-10.642384 20.496823 0 13.8351 11.216459 25.050536 25.052582 25.050536 5.320169 0 10.250458-1.663896 14.306844-4.492314 1.905396-1.121544 3.828188-2.202155 5.786797-3.194762 12.798491-6.481621 25.934672-9.769504 39.043225-9.769504 17.089214 0 30.893614 4.676509 41.031509 13.898545 10.137895 9.224082 15.06716 21.183462 15.06716 36.56273 0 11.235902-2.821255 22.816658-8.384971 34.416857-5.737678 11.948123-18.3356 30.02585-37.44175 53.735855-11.338233 14.066367-25.098631 30.065759-41.136909 47.827285-5.262864 5.827729-31.78696 28.55229-45.718251 37.434587l0 0C283.26497 731.322148 279.248494 737.51622 279.248494 744.653781z" p-id="9945"></path><path d="M693.570847 279.753495c26.999934 0 48.88743-21.554922 48.88743-48.131207l0-50.406017c0-26.576285-21.88852-48.109718-48.88743-48.109718-27.018354 0-48.925293 21.533432-48.925293 48.109718l0 50.406017C644.646578 258.198573 666.552493 279.753495 693.570847 279.753495z" p-id="9946"></path><path d="M327.746044 279.753495c27.018354 0 48.907896-21.554922 48.907896-48.131207l0-50.406017c0-26.576285-21.889543-48.109718-48.907896-48.109718-26.998911 0-48.904827 21.533432-48.904827 48.109718l0 50.406017C278.841218 258.198573 300.747133 279.753495 327.746044 279.753495z" p-id="9947"></path><path d="M854.35374 265.833461c0-38.809911-22.189372-56.839543-57.190537-56.839543l-28.304649-2.574638 0 24.445762c0 40.500413-33.377178 73.317843-74.513064 73.317843-41.166585 0-74.531484-32.81743-74.531484-73.317843l0-24.445762L403.055241 206.41928l0 24.445762c0 40.500413-33.380248 73.317843-74.514087 73.317843-41.167608 0-74.53046-32.81743-74.53046-73.317843l0-24.445762-27.812439 2.574638c-27.438932 0-57.204863 29.839609-57.204863 56.839543 0 0 0 451.081559 0 549.298488 0 45.409213 36.9741 75.760474 71.045079 75.760474 51.232848 0 450.361151-0.014326 538.057469-0.014326 38.931684 0 76.910671-27.267017 76.910671-70.838372C855.005586 691.809225 854.35374 265.833461 854.35374 265.833461zM818.523697 782.317589c0 50.593282-15.544021 70.685899-59.498092 70.685899-114.238834 0-380.15109 0-494.705102 0-36.868699 0-57.173141-19.296485-57.173141-56.839543 0-125.126812-1.954515-428.66399-1.954515-428.66399l613.595886 0C818.788733 367.499955 818.523697 656.972812 818.523697 782.317589z" p-id="9948"></path></svg>