<?xml version="1.0" standalone="no"?><!DOCTYPE svg PUBLIC "-//W3C//DTD SVG 1.1//EN" "http://www.w3.org/Graphics/SVG/1.1/DTD/svg11.dtd"><svg t="1505223116836" class="icon" style="" viewBox="0 0 1024 1024" version="1.1" xmlns="http://www.w3.org/2000/svg" p-id="20982" xmlns:xlink="http://www.w3.org/1999/xlink" width="200" height="200"><defs><style type="text/css"></style></defs><path d="M287.827893 746.008638c0 10.29139 8.340969 18.633383 18.633383 18.633383 0.494257 0 0.980327-0.035816 1.465374-0.073678l182.776813 0 0-0.027629c13.862729-0.295735 25.009603-11.618619 25.009603-25.552979 0-13.932314-11.147898-25.255197-25.009603-25.552979l0-0.031722L389.484154 713.403033l2.060939-2.136663c30.054503-30.537504 51.68208-55.038524 64.283072-72.828702 12.694113-17.922185 21.700231-34.075073 26.767644-48.013527 5.100158-14.046924 7.687076-27.480888 7.687076-39.927361 0-28.077475-10.544147-51.559283-31.339776-69.793576-20.599154-18.061354-47.065945-27.220968-78.665641-27.220968-26.266224 0-52.128241 7.582699-77.029374 22.559808-0.020466 0.01228-0.030699 0.031722-0.047072 0.046049-0.836041 0.456395-1.65264 0.944512-2.427282 1.490957-6.437619 4.53427-10.642384 12.023848-10.642384 20.4958 0 13.836123 11.216459 25.051559 25.051559 25.051559 5.322216 0 10.253528-1.663896 14.310937-4.494361 1.904373-1.121544 3.826142-2.201132 5.783727-3.192715 12.798491-6.481621 25.935696-9.769504 39.044248-9.769504 17.08819 0 30.893614 4.675486 41.030485 13.898545 10.138918 9.223059 15.068184 21.183462 15.068184 36.56273 0 11.234879-2.822278 22.814612-8.385994 34.416857-5.736655 11.948123-18.334577 30.02585-37.44175 53.735855-11.337209 14.066367-25.098631 30.065759-41.135886 47.827285-5.262864 5.827729-31.787984 28.55229-45.718251 37.432541l0.001023 0.002047C291.845393 732.677005 287.827893 738.871077 287.827893 746.008638z" p-id="20983"></path><path d="M538.842857 610.934267c19.961634 17.630542 44.198641 26.568099 72.036663 26.568099 17.193591 0 32.861432-2.636037 46.750767-7.854898-6.995321 16.223496-18.188244 32.269961-33.391505 47.843658-13.897521 14.244422-29.716812 27.037796-47.166229 38.235836-0.277316 0.14224-0.556679 0.277316-0.827855 0.427742-8.098445 4.502547-13.580297 13.168927-13.580297 23.12058 0 14.588253 11.780301 26.41358 26.311249 26.41358 4.092201 0 7.965415-0.937348 11.420097-2.610454 0.027629-0.014326 0.056282-0.020466 0.083911-0.035816 0.071631-0.037862 0.143263-0.077771 0.213871-0.11768 0.743944-0.37146 1.467421-0.777713 2.168386-1.215688 37.09178-20.809955 68.305689-48.711422 92.877317-83.074044 26.828019-37.520545 40.430828-75.278497 40.430828-112.230084 0-33.04972-11.122315-60.553121-33.059953-81.745792-21.88545-21.143553-50.326199-31.864732-84.532255-31.864732-30.422893 0-56.593949 9.058306-77.783551 26.923186-21.439288 18.075681-32.30987 40.483017-32.30987 66.596767C508.484432 571.402925 518.699074 593.144088 538.842857 610.934267zM582.477656 514.618641c9.692756-8.5487 21.696138-12.703323 36.699853-12.703323 16.410762 0 29.418007 4.9088 39.764656 15.005762 10.30674 10.058077 15.31787 22.697955 15.31787 38.645159 0 2.01489-0.448208 6.947226-2.512217 18.987447-16.307408 9.18008-33.138748 13.831007-50.068326 13.831007-14.909571 0-27.331485-4.229325-37.97387-12.93152-10.334369-8.444323-15.357779-18.113543-15.357779-29.560246C568.347844 533.22644 572.969095 522.997472 582.477656 514.618641z" p-id="20984"></path><path d="M693.570847 279.753495c26.999934 0 48.88743-21.554922 48.88743-48.131207l0-50.406017c0-26.576285-21.88852-48.109718-48.88743-48.109718-27.018354 0-48.925293 21.533432-48.925293 48.109718l0 50.406017C644.646578 258.198573 666.552493 279.753495 693.570847 279.753495z" p-id="20985"></path><path d="M327.746044 279.753495c27.018354 0 48.907896-21.554922 48.907896-48.131207l0-50.406017c0-26.576285-21.889543-48.109718-48.907896-48.109718-26.998911 0-48.904827 21.533432-48.904827 48.109718l0 50.406017C278.841218 258.198573 300.747133 279.753495 327.746044 279.753495z" p-id="20986"></path><path d="M854.35374 265.834484c0-38.810934-22.189372-56.840566-57.190537-56.840566l-28.304649-2.574638 0 24.445762c0 40.500413-33.377178 73.317843-74.513064 73.317843-41.166585 0-74.531484-32.81743-74.531484-73.317843l0-24.445762L403.055241 206.41928l0 24.445762c0 40.500413-33.380248 73.317843-74.514087 73.317843-41.167608 0-74.53046-32.81743-74.53046-73.317843l0-24.445762-27.812439 2.574638c-27.438932 0-57.204863 29.839609-57.204863 56.840566 0 0 0 451.080535 0 549.297464 0 45.409213 36.9741 75.760474 71.045079 75.760474 51.232848 0 450.361151-0.014326 538.057469-0.014326 38.931684 0 76.910671-27.267017 76.910671-70.838372C855.005586 691.809225 854.35374 265.834484 854.35374 265.834484zM818.523697 782.317589c0 50.593282-15.544021 70.685899-59.498092 70.685899-114.238834 0-380.15109 0-494.705102 0-36.868699 0-57.173141-19.296485-57.173141-56.839543 0-125.126812-1.954515-428.66399-1.954515-428.66399l613.595886 0C818.788733 367.499955 818.523697 656.972812 818.523697 782.317589z" p-id="20987"></path></svg>