<?xml version="1.0" standalone="no"?><!DOCTYPE svg PUBLIC "-//W3C//DTD SVG 1.1//EN" "http://www.w3.org/Graphics/SVG/1.1/DTD/svg11.dtd"><svg t="1505223068275" class="icon" style="" viewBox="0 0 1024 1024" version="1.1" xmlns="http://www.w3.org/2000/svg" p-id="13187" xmlns:xlink="http://www.w3.org/1999/xlink" width="200" height="200"><defs><style type="text/css"></style></defs><path d="M284.158317 740.214678c0 10.29139 8.341992 18.633383 18.633383 18.633383 0.494257 0 0.980327-0.035816 1.465374-0.073678l182.77579 0 0-0.027629c13.862729-0.295735 25.010627-11.618619 25.010627-25.552979s-11.148921-25.255197-25.010627-25.552979l0-0.031722-101.217263 0 2.058892-2.136663c30.055526-30.537504 51.683103-55.038524 64.284095-72.828702 12.69309-17.922185 21.699208-34.075073 26.767644-48.013527 5.100158-14.046924 7.687076-27.480888 7.687076-39.927361 0-28.077475-10.54517-51.560306-31.338752-69.793576-20.600177-18.061354-47.065945-27.220968-78.666664-27.220968-26.266224 0-52.128241 7.582699-77.029374 22.559808-0.020466 0.01228-0.030699 0.031722-0.047072 0.046049-0.836041 0.456395-1.65264 0.944512-2.427282 1.490957-6.437619 4.53427-10.642384 12.023848-10.642384 20.4958 0 13.836123 11.216459 25.051559 25.052582 25.051559 5.323239 0 10.254551-1.664919 14.31196-4.496407 1.904373-1.12052 3.825119-2.200108 5.78168-3.190669 12.797467-6.482645 25.934672-9.769504 39.043225-9.769504 17.08819 0 30.892591 4.675486 41.030485 13.898545 10.138918 9.223059 15.068184 21.183462 15.068184 36.56273 0 11.234879-2.822278 22.814612-8.385994 34.416857-5.737678 11.946077-18.3356 30.02585-37.440727 53.735855-11.338233 14.066367-25.098631 30.063713-41.137932 47.827285-5.262864 5.827729-31.785937 28.55229-45.717228 37.432541l0.001023 0.002047C288.175817 726.883045 284.158317 733.077118 284.158317 740.214678z" p-id="13188"></path><path d="M504.869091 663.217027l-0.002047 0.014326 136.257314 0 0 68.457138c-0.002047 0.132006-0.010233 0.261966-0.010233 0.393973 0 16.266475 13.187347 29.453822 29.453822 29.453822s29.453822-13.187347 29.453822-29.453822c0-0.595564-0.022513-1.184989-0.058328-1.772366l0-67.078745 16.410762 0 0-0.002047c0.062422 0 0.121773 0.004093 0.184195 0.004093 12.856819 0 23.280216-10.423397 23.280216-23.282263 0-12.856819-10.423397-23.280216-23.280216-23.280216-0.062422 0-0.121773 0.004093-0.184195 0.00614l0-0.00614-16.410762 0L699.963441 466.184535l-0.001023 0c0-0.022513 0.00307-0.046049 0.00307-0.069585 0-10.058077-8.154727-18.213827-18.213827-18.213827-5.703909 0-10.79281 2.626827-14.132882 6.734378l-172.805718 181.416839c-3.299139 2.834558-5.39487 7.027044-5.39487 11.715833C489.419214 656.299477 496.33574 663.217027 504.869091 663.217027zM641.124358 549.026288l0 67.644633-63.878866 0L641.124358 549.026288z" p-id="13189"></path><path d="M693.570847 279.753495c26.999934 0 48.88743-21.554922 48.88743-48.131207l0-50.406017c0-26.576285-21.88852-48.109718-48.88743-48.109718-27.018354 0-48.925293 21.533432-48.925293 48.109718l0 50.406017C644.646578 258.198573 666.552493 279.753495 693.570847 279.753495z" p-id="13190"></path><path d="M854.35374 265.833461c0-38.809911-22.189372-56.839543-57.190537-56.839543l-28.304649-2.574638 0 24.445762c0 40.500413-33.377178 73.317843-74.513064 73.317843-41.166585 0-74.531484-32.81743-74.531484-73.317843l0-24.445762L403.055241 206.41928l0 24.445762c0 40.500413-33.380248 73.317843-74.514087 73.317843-41.167608 0-74.53046-32.81743-74.53046-73.317843l0-24.445762-27.812439 2.574638c-27.438932 0-57.204863 29.839609-57.204863 56.839543 0 0 0 451.081559 0 549.298488 0 45.409213 36.9741 75.760474 71.045079 75.760474 51.232848 0 450.361151-0.014326 538.057469-0.014326 38.931684 0 76.910671-27.267017 76.910671-70.838372C855.005586 691.809225 854.35374 265.833461 854.35374 265.833461zM818.523697 782.317589c0 50.593282-15.544021 70.685899-59.498092 70.685899-114.238834 0-380.15109 0-494.705102 0-36.868699 0-57.173141-19.296485-57.173141-56.839543 0-125.126812-1.954515-428.66399-1.954515-428.66399l613.595886 0C818.788733 367.499955 818.523697 656.972812 818.523697 782.317589z" p-id="13191"></path><path d="M327.746044 279.753495c27.018354 0 48.907896-21.554922 48.907896-48.131207l0-50.406017c0-26.576285-21.889543-48.109718-48.907896-48.109718-26.998911 0-48.904827 21.533432-48.904827 48.109718l0 50.406017C278.841218 258.198573 300.747133 279.753495 327.746044 279.753495z" p-id="13192"></path></svg>