<?xml version="1.0" standalone="no"?><!DOCTYPE svg PUBLIC "-//W3C//DTD SVG 1.1//EN" "http://www.w3.org/Graphics/SVG/1.1/DTD/svg11.dtd"><svg t="1505223107001" class="icon" style="" viewBox="0 0 1024 1024" version="1.1" xmlns="http://www.w3.org/2000/svg" p-id="19425" xmlns:xlink="http://www.w3.org/1999/xlink" width="200" height="200"><defs><style type="text/css"></style></defs><path d="M508.330936 677.014264c0 25.63075 11.533684 47.39545 34.278711 64.688301 22.311145 16.960277 50.198286 25.562189 82.881662 25.562189 33.004695 0 60.802808-8.423857 82.620719-25.037233 22.249747-16.934694 33.532721-38.73214 33.532721-64.789609 0-30.197766-14.622022-53.871955-43.499723-70.480214 25.479301-17.520025 38.383192-39.506782 38.383192-65.459874 0-25.104771-10.766205-46.492894-32.001855-63.572898-20.904099-16.806781-46.812165-25.327852-77.003791-25.327852-30.67872 0-57.042157 8.588609-78.356602 25.52535-21.663392 17.216103-32.647561 38.538735-32.647561 63.374376 0 14.280238 3.492544 27.069519 10.380418 38.011732 5.697769 9.054213 14.580067 18.175965 26.458605 27.183106C523.468704 623.632473 508.330936 647.25652 508.330936 677.014264zM589.955978 514.486634c9.351995-7.455809 21.655206-11.234879 36.566824-11.234879 14.724353 0 26.979468 3.848655 36.423561 11.437493 9.231245 7.426133 13.718443 16.570397 13.718443 27.960819 0 10.692526-4.622274 19.677155-14.129812 27.459399-9.812483 8.032954-21.428032 11.93789-35.508725 11.93789-14.273075 0-26.106588-3.948939-36.177967-12.076036-9.734712-7.844665-14.467503-16.922415-14.467503-27.744901C576.380798 530.837021 580.820923 521.763364 589.955978 514.486634zM584.067874 645.627417c10.258645-7.898901 23.859407-11.904121 40.424688-11.904121 16.900925 0 30.766724 3.981684 41.211611 11.833513 10.128685 7.626701 15.053857 17.174148 15.053857 29.185716l0 4.252861c0 10.9504-4.801353 19.668968-14.681374 26.647917-10.295484 7.27673-23.782659 10.966773-40.090067 10.966773-17.08819 0-31.082926-4.0175-41.59535-11.939937-10.211573-7.68503-15.173584-17.33583-15.173584-29.503964C569.217654 662.98576 574.075289 653.322679 584.067874 645.627417z" p-id="19426"></path><path d="M282.354228 743.732805c0 10.29139 8.341992 18.633383 18.633383 18.633383 0.494257 0 0.980327-0.035816 1.465374-0.073678l182.776813 0 0-0.027629c13.862729-0.296759 25.009603-11.618619 25.009603-25.552979s-11.147898-25.25622-25.009603-25.552979l0-0.031722-101.219309 0 2.059915-2.136663c30.055526-30.537504 51.68208-55.038524 64.283072-72.828702 12.694113-17.922185 21.700231-34.075073 26.768667-48.01148 5.100158-14.048971 7.686053-27.482935 7.686053-39.929408 0-28.078499-10.544147-51.560306-31.339776-69.794599-20.59813-18.061354-47.065945-27.220968-78.665641-27.220968-26.266224 0-52.128241 7.582699-77.029374 22.559808-0.020466 0.01228-0.030699 0.031722-0.047072 0.046049-0.836041 0.456395-1.65264 0.944512-2.428306 1.490957-6.437619 4.53427-10.642384 12.024871-10.642384 20.496823 0 13.8351 11.216459 25.050536 25.052582 25.050536 5.321192 0 10.252505-1.663896 14.308891-4.493338 1.905396-1.121544 3.827165-2.202155 5.78475-3.193739 12.798491-6.481621 25.934672-9.769504 39.044248-9.769504 17.089214 0 30.893614 4.676509 41.030485 13.898545 10.138918 9.224082 15.06716 21.184485 15.06716 36.563754 0 11.235902-2.821255 22.814612-8.385994 34.416857-5.737678 11.948123-18.334577 30.02585-37.44175 53.735855-11.338233 14.066367-25.098631 30.065759-41.136909 47.827285-5.262864 5.827729-31.787984 28.55229-45.718251 37.434587l0 0C286.370705 730.402195 282.354228 736.596268 282.354228 743.732805z" p-id="19427"></path><path d="M693.570847 279.753495c26.999934 0 48.88743-21.554922 48.88743-48.131207l0-50.406017c0-26.576285-21.88852-48.109718-48.88743-48.109718-27.018354 0-48.925293 21.533432-48.925293 48.109718l0 50.406017C644.646578 258.19755 666.552493 279.753495 693.570847 279.753495z" p-id="19428"></path><path d="M854.35374 265.832438c0-38.809911-22.189372-56.839543-57.190537-56.839543l-28.304649-2.574638 0 24.445762c0 40.500413-33.377178 73.317843-74.513064 73.317843-41.166585 0-74.531484-32.81743-74.531484-73.317843l0-24.445762L403.055241 206.418256l0 24.445762c0 40.500413-33.380248 73.317843-74.514087 73.317843-41.167608 0-74.53046-32.81743-74.53046-73.317843l0-24.445762-27.812439 2.574638c-27.438932 0-57.204863 29.839609-57.204863 56.839543 0 0 0 451.082582 0 549.300534 0 45.407166 36.9741 75.760474 71.045079 75.760474 51.232848 0 450.361151-0.014326 538.057469-0.014326 38.931684 0 76.910671-27.269064 76.910671-70.840418C855.005586 691.808202 854.35374 265.832438 854.35374 265.832438zM818.523697 782.318612c0 50.593282-15.544021 70.685899-59.498092 70.685899-114.238834 0-380.15109 0-494.705102 0-36.868699 0-57.173141-19.296485-57.173141-56.839543 0-125.126812-1.954515-428.666036-1.954515-428.666036l613.595886 0C818.788733 367.499955 818.523697 656.973836 818.523697 782.318612z" p-id="19429"></path><path d="M327.746044 279.753495c27.018354 0 48.907896-21.554922 48.907896-48.131207l0-50.406017c0-26.576285-21.889543-48.109718-48.907896-48.109718-26.998911 0-48.904827 21.533432-48.904827 48.109718l0 50.406017C278.841218 258.19755 300.747133 279.753495 327.746044 279.753495z" p-id="19430"></path></svg>