<?xml version="1.0" standalone="no"?><!DOCTYPE svg PUBLIC "-//W3C//DTD SVG 1.1//EN" "http://www.w3.org/Graphics/SVG/1.1/DTD/svg11.dtd"><svg t="1505223097986" class="icon" style="" viewBox="0 0 1024 1024" version="1.1" xmlns="http://www.w3.org/2000/svg" p-id="17868" xmlns:xlink="http://www.w3.org/1999/xlink" width="200" height="200"><defs><style type="text/css"></style></defs><path d="M379.793444 642.948401c-11.337209 14.068414-25.097608 30.065759-41.134863 47.827285-5.262864 5.829775-31.785937 28.550243-45.716204 37.434587-5.894244 3.128247-9.911744 9.323343-9.911744 16.460904 0 10.29139 8.341992 18.633383 18.632359 18.633383 0.494257 0 0.980327-0.035816 1.465374-0.073678l182.777837 0 0-0.025583c13.860682-0.297782 25.01165-11.619642 25.01165-25.555026 0-13.930267-11.149944-25.255197-25.01165-25.552979l0-0.031722-101.218286 0 2.060939-2.136663c30.054503-30.535457 51.68208-55.038524 64.282049-72.828702 12.695137-17.922185 21.701255-34.073026 26.767644-48.01148 5.100158-14.048971 7.686053-27.480888 7.686053-39.929408 0-28.077475-10.5421-51.559283-31.337729-69.792553-20.599154-18.061354-47.064922-27.220968-78.667687-27.220968-26.263154 0-52.126194 7.581676-77.027327 22.559808-0.020466 0.01228-0.029676 0.030699-0.046049 0.046049-0.836041 0.456395-1.653663 0.944512-2.429329 1.490957-6.436596 4.533246-10.642384 12.023848-10.642384 20.4958 0 13.8351 11.216459 25.051559 25.052582 25.051559 5.320169 0 10.250458-1.663896 14.307867-4.493338 1.905396-1.121544 3.828188-2.202155 5.786797-3.194762 12.798491-6.481621 25.934672-9.768481 39.043225-9.768481 17.089214 0 30.894637 4.675486 41.031509 13.897521 10.136871 9.225105 15.066137 21.183462 15.066137 36.56273 0 11.235902-2.820232 22.816658-8.384971 34.416857C411.497517 601.160669 398.901641 619.240443 379.793444 642.948401z" p-id="17869"></path><path d="M533.775444 507.142365c0.146333 0 0.289596-0.008186 0.435928-0.011256l122.408911 0-95.505167 214.33967 0.12382 0.077771c-2.118244 3.977591-3.321652 8.515954-3.321652 13.334703 0 15.697517 12.725836 28.420283 28.420283 28.420283 12.32163 0 22.806425-7.838525 26.750247-18.801205l126.401852-272.508487 0.037862-0.077771c0.909719-1.527796 1.440815-3.304256 1.440815-5.209652 0-5.647627-4.583388-10.225899-10.239202-10.229992l0 0L534.368962 456.476429c-0.197498-0.004093-0.393973-0.01535-0.593518-0.01535-13.994736 0-25.339108 11.346419-25.339108 25.341155S519.780709 507.142365 533.775444 507.142365z" p-id="17870"></path><path d="M693.570847 279.753495c26.999934 0 48.888454-21.554922 48.888454-48.131207l0-50.406017c0-26.576285-21.889543-48.109718-48.888454-48.109718-27.01733 0-48.925293 21.533432-48.925293 48.109718l0 50.406017C644.646578 258.198573 666.553517 279.753495 693.570847 279.753495z" p-id="17871"></path><path d="M327.747067 279.753495c27.018354 0 48.906873-21.554922 48.906873-48.131207l0-50.406017c0-26.576285-21.88852-48.109718-48.906873-48.109718-26.998911 0-48.904827 21.533432-48.904827 48.109718l0 50.406017C278.842241 258.198573 300.748157 279.753495 327.747067 279.753495z" p-id="17872"></path><path d="M854.35374 265.833461c0-38.809911-22.189372-56.839543-57.189514-56.839543l-28.304649-2.574638 0 24.445762c0 40.500413-33.377178 73.317843-74.513064 73.317843-41.167608 0-74.531484-32.81743-74.531484-73.317843l0-24.445762L403.055241 206.41928l0 24.445762c0 40.500413-33.381271 73.317843-74.513064 73.317843-41.169655 0-74.531484-32.81743-74.531484-73.317843l0-24.445762-27.812439 2.574638c-27.438932 0-57.205886 29.839609-57.205886 56.839543 0 0 0 451.081559 0 549.298488 0 45.409213 36.975123 75.760474 71.046103 75.760474 51.232848 0 450.361151-0.014326 538.057469-0.014326 38.931684 0 76.909647-27.267017 76.909647-70.838372C855.005586 691.809225 854.35374 265.833461 854.35374 265.833461zM818.52472 782.317589c0 50.593282-15.545044 70.685899-59.498092 70.685899-114.238834 0-380.152113 0-494.706125 0-36.868699 0-57.173141-19.296485-57.173141-56.839543 0-125.126812-1.954515-428.66399-1.954515-428.66399l613.597933 0C818.79078 367.499955 818.52472 656.972812 818.52472 782.317589z" p-id="17873"></path></svg>