<?xml version="1.0" standalone="no"?><!DOCTYPE svg PUBLIC "-//W3C//DTD SVG 1.1//EN" "http://www.w3.org/Graphics/SVG/1.1/DTD/svg11.dtd"><svg t="1505223126572" class="icon" style="" viewBox="0 0 1024 1024" version="1.1" xmlns="http://www.w3.org/2000/svg" p-id="22581" xmlns:xlink="http://www.w3.org/1999/xlink" width="200" height="200"><defs><style type="text/css"></style></defs><path d="M620.339985 766.81757c34.833343 0 63.548338-14.936177 85.345784-44.394093 21.450545-28.982078 32.326243-67.000973 32.326243-113.003703 0-44.851511-10.869558-82.4662-32.307823-111.800295-21.801539-29.830399-49.849338-44.956911-83.365686-44.956911-35.322483 0-64.413032 14.968923-86.466304 44.490284-21.704324 29.05371-32.708959 67.113537-32.708959 113.122407 0 46.566572 10.666944 84.58649 31.703049 113.003703C556.255435 752.168941 585.012386 766.81757 620.339985 766.81757zM579.228659 530.828834c10.354835-18.512632 23.796986-27.51261 41.094954-27.51261l2.501984 0c16.22145 0 28.90533 9.134031 38.777165 27.922956 10.299577 19.61064 15.522532 46.530756 15.522532 80.011288 0 33.305547-5.411243 59.903322-16.086373 79.054497-10.268878 18.433838-23.74889 27.393907-41.210587 27.393907-17.455557 0-30.850635-8.949836-40.954761-27.365254-10.514471-19.153222-15.845896-46.191018-15.845896-80.361259C563.026652 576.664765 568.477804 550.036291 579.228659 530.828834z" p-id="22582"></path><path d="M413.836795 702.282764c-9.241478 7.696286-21.785166 11.600199-37.283138 11.600199-17.733896 0-36.094056-3.795443-54.796-11.308557-0.106424-0.042979-0.198521-0.060375-0.297782-0.089028-2.952238-1.167592-6.16542-1.815345-9.532097-1.815345-14.32731 0-25.940812 11.612479-25.940812 25.940812 0 10.636245 6.40385 19.772322 15.564487 23.775496 0.013303 0.014326 0.021489 0.029676 0.045025 0.039909 24.073278 10.042727 49.308009 15.133675 75.068719 15.133675 32.073486 0 59.074444-8.93551 80.253812-26.559912 21.455661-17.859763 32.334429-40.792055 32.334429-68.159356 0-11.036357-1.882883-21.644973-5.595438-31.532157-3.738138-9.945513-9.085936-18.570961-15.897062-25.640983-5.047969-5.232165-12.19474-9.872858-21.325701-13.858636 11.33107-6.611581 20.057825-14.250562 26.02063-22.790052 7.750521-11.104919 11.68104-24.855084 11.68104-40.869826 0-26.351158-10.04375-47.453778-29.854958-62.718437-19.407002-14.954597-46.050826-22.536272-79.19162-22.536272-24.562419 0-47.589878 4.468778-68.442812 13.282514l-3.125177 1.320065 0.025583 0.094144c-8.950859 3.416819-15.311731 12.078083-15.311731 22.230304 0 13.141298 10.651594 23.791869 23.790846 23.791869 4.212952 0 8.167007-1.100054 11.600199-3.0208 0.290619 0.038886 0.572028 0.019443 0.839111-0.073678 16.121166-5.649674 31.099299-8.505721 44.674479-8.505721 16.786315 0 30.43415 3.820002 40.564881 11.356652 9.801227 7.291057 14.56574 16.476253 14.56574 28.081569 0 12.94073-4.868891 22.500457-14.883989 29.224602-9.109472 6.116301-22.211884 9.621125-39.020712 10.451026-0.042979 0.002047-0.077771 0.016373-0.115634 0.024559-12.951987 1.136893-23.11137 12.004405-23.11137 25.254174 0 13.573133 10.663874 24.654516 24.070208 25.324782 18.645662 2.221598 26.647917 4.187369 30.061666 5.502317 5.372358 2.078335 10.352789 5.374404 14.804171 9.79304 7.579629 7.882528 11.265578 16.817014 11.265578 27.311019C427.343413 684.919305 422.9258 694.714392 413.836795 702.282764z" p-id="22583"></path><path d="M693.570847 279.753495c26.999934 0 48.888454-21.554922 48.888454-48.131207l0-50.406017c0-26.576285-21.889543-48.109718-48.888454-48.109718-27.01733 0-48.925293 21.533432-48.925293 48.109718l0 50.406017C644.646578 258.19755 666.553517 279.753495 693.570847 279.753495z" p-id="22584"></path><path d="M854.35374 265.832438c0-38.809911-22.189372-56.839543-57.189514-56.839543l-28.304649-2.574638 0 24.445762c0 40.500413-33.377178 73.317843-74.513064 73.317843-41.167608 0-74.531484-32.81743-74.531484-73.317843l0-24.445762L403.055241 206.418256l0 24.445762c0 40.500413-33.380248 73.317843-74.514087 73.317843-41.167608 0-74.53046-32.81743-74.53046-73.317843l0-24.445762-27.812439 2.574638c-27.438932 0-57.204863 29.839609-57.204863 56.839543 0 0 0 451.082582 0 549.300534 0 45.407166 36.9741 75.760474 71.045079 75.760474 51.232848 0 450.361151-0.014326 538.058492-0.014326 38.931684 0 76.909647-27.269064 76.909647-70.840418C855.005586 691.808202 854.35374 265.832438 854.35374 265.832438zM818.52472 782.318612c0 50.593282-15.545044 70.685899-59.498092 70.685899-114.238834 0-380.152113 0-494.706125 0-36.868699 0-57.173141-19.296485-57.173141-56.839543 0-125.126812-1.954515-428.666036-1.954515-428.666036l613.595886 0C818.788733 367.499955 818.52472 656.973836 818.52472 782.318612z" p-id="22585"></path><path d="M327.746044 279.753495c27.018354 0 48.907896-21.554922 48.907896-48.131207l0-50.406017c0-26.576285-21.889543-48.109718-48.907896-48.109718-26.998911 0-48.904827 21.533432-48.904827 48.109718l0 50.406017C278.841218 258.19755 300.747133 279.753495 327.746044 279.753495z" p-id="22586"></path></svg>