<?xml version="1.0" standalone="no"?><!DOCTYPE svg PUBLIC "-//W3C//DTD SVG 1.1//EN" "http://www.w3.org/Graphics/SVG/1.1/DTD/svg11.dtd"><svg t="1505223212033" class="icon" style="" viewBox="0 0 1024 1024" version="1.1" xmlns="http://www.w3.org/2000/svg" p-id="33144" xmlns:xlink="http://www.w3.org/1999/xlink" width="200" height="200"><defs><style type="text/css"></style></defs><path d="M327.746044 279.753495c27.018354 0 48.907896-21.554922 48.907896-48.131207l0-50.406017c0-26.576285-21.889543-48.109718-48.907896-48.109718-26.998911 0-48.904827 21.533432-48.904827 48.109718l0 50.406017C278.841218 258.198573 300.747133 279.753495 327.746044 279.753495z" p-id="33145"></path><path d="M693.570847 279.753495c26.999934 0 48.88743-21.554922 48.88743-48.131207l0-50.406017c0-26.576285-21.88852-48.109718-48.88743-48.109718-27.018354 0-48.925293 21.533432-48.925293 48.109718l0 50.406017C644.646578 258.198573 666.552493 279.753495 693.570847 279.753495z" p-id="33146"></path><path d="M854.35374 265.833461c0-38.809911-22.189372-56.839543-57.190537-56.839543l-28.304649-2.574638 0 24.445762c0 40.500413-33.377178 73.317843-74.513064 73.317843-41.166585 0-74.531484-32.81743-74.531484-73.317843l0-24.445762L403.055241 206.41928l0 24.445762c0 40.500413-33.380248 73.317843-74.514087 73.317843-41.167608 0-74.53046-32.81743-74.53046-73.317843l0-24.445762-27.812439 2.574638c-27.438932 0-57.204863 29.839609-57.204863 56.839543 0 0 0 451.081559 0 549.298488 0 45.409213 36.9741 75.760474 71.045079 75.760474 51.232848 0 450.361151-0.014326 538.057469-0.014326 38.931684 0 76.910671-27.267017 76.910671-70.838372C855.005586 691.809225 854.35374 265.833461 854.35374 265.833461zM818.523697 782.317589c0 50.593282-15.544021 70.685899-59.498092 70.685899-114.238834 0-380.15109 0-494.705102 0-36.868699 0-57.173141-19.296485-57.173141-56.839543 0-125.126812-1.954515-428.66399-1.954515-428.66399l613.595886 0C818.788733 367.499955 818.523697 656.972812 818.523697 782.317589z" p-id="33147"></path><path d="M538.21557 702.977589c-9.241478 7.696286-21.785166 11.600199-37.283138 11.600199-17.733896 0-36.094056-3.795443-54.796-11.308557-0.106424-0.041956-0.198521-0.060375-0.297782-0.088004-2.952238-1.167592-6.16542-1.816369-9.532097-1.816369-14.32731 0-25.940812 11.612479-25.940812 25.940812 0 10.637268 6.40385 19.772322 15.564487 23.775496 0.013303 0.014326 0.021489 0.029676 0.045025 0.039909 24.073278 10.042727 49.308009 15.133675 75.068719 15.133675 32.073486 0 59.074444-8.93551 80.253812-26.559912 21.455661-17.859763 32.334429-40.792055 32.334429-68.159356 0-11.036357-1.882883-21.644973-5.595438-31.532157-3.738138-9.945513-9.085936-18.570961-15.897062-25.640983-5.047969-5.232165-12.19474-9.872858-21.325701-13.858636 11.33107-6.611581 20.057825-14.250562 26.02063-22.790052 7.750521-11.104919 11.68104-24.855084 11.68104-40.869826 0-26.351158-10.04375-47.452755-29.854958-62.71639-19.407002-14.95562-46.050826-22.537296-79.19162-22.537296-24.562419 0-47.589878 4.468778-68.442812 13.282514l-3.125177 1.320065 0.025583 0.094144c-8.950859 3.416819-15.311731 12.079106-15.311731 22.230304 0 13.141298 10.651594 23.791869 23.790846 23.791869 4.212952 0 8.167007-1.099031 11.599176-3.019777 0.291642 0.038886 0.573051 0.020466 0.840134-0.073678 16.121166-5.650697 31.099299-8.506744 44.674479-8.506744 16.786315 0 30.43415 3.820002 40.564881 11.356652 9.801227 7.291057 14.56574 16.47523 14.56574 28.080545 0 12.94073-4.868891 22.500457-14.883989 29.224602-9.109472 6.116301-22.211884 9.621125-39.020712 10.451026-0.041956 0.002047-0.076748 0.016373-0.115634 0.025583-12.951987 1.136893-23.11137 12.003382-23.11137 25.251104 0 13.57518 10.663874 24.657586 24.071232 25.326828 18.644639 2.222621 26.647917 4.187369 30.060643 5.502317 5.372358 2.078335 10.352789 5.374404 14.804171 9.79304 7.579629 7.882528 11.265578 16.817014 11.265578 27.311019C551.722188 685.613106 547.304575 695.409217 538.21557 702.977589z" p-id="33148"></path></svg>