<?xml version="1.0" standalone="no"?><!DOCTYPE svg PUBLIC "-//W3C//DTD SVG 1.1//EN" "http://www.w3.org/Graphics/SVG/1.1/DTD/svg11.dtd"><svg t="1505223221481" class="icon" style="" viewBox="0 0 1024 1024" version="1.1" xmlns="http://www.w3.org/2000/svg" p-id="34730" xmlns:xlink="http://www.w3.org/1999/xlink" width="200" height="200"><defs><style type="text/css"></style></defs><path d="M390.38671 667.973354 390.38671 667.973354l-0.002047 0.01228 136.25629 0 0 68.417229c-0.002047 0.146333-0.011256 0.287549-0.011256 0.433882 0 16.268522 13.187347 29.455869 29.455869 29.455869 16.265452 0 29.451776-13.187347 29.451776-29.455869 0-0.591471-0.022513-1.176802-0.057305-1.76111l0-67.090001 16.409738 0 0-0.002047c0.062422 0 0.121773 0.004093 0.184195 0.004093 12.856819 0 23.281239-10.423397 23.281239-23.280216 0-12.858866-10.42442-23.282263-23.281239-23.282263-0.062422 0-0.121773 0.004093-0.184195 0.00614l0-0.00614-16.409738 0L585.480037 470.938815l-0.001023 0c0-0.022513 0.00307-0.046049 0.00307-0.069585 0-10.057053-8.15575-18.213827-18.21485-18.213827-5.708002 0-10.79895 2.63092-14.137998 6.741541L380.341936 640.797411c-3.304256 2.834558-5.405103 7.031137-5.405103 11.724019C374.93581 661.053758 381.853359 667.973354 390.38671 667.973354zM526.640953 553.782615l0 67.642586-63.879889 0L526.640953 553.782615z" p-id="34731"></path><path d="M327.746044 279.753495c27.018354 0 48.907896-21.554922 48.907896-48.131207l0-50.406017c0-26.576285-21.889543-48.109718-48.907896-48.109718-26.998911 0-48.904827 21.533432-48.904827 48.109718l0 50.406017C278.841218 258.198573 300.747133 279.753495 327.746044 279.753495z" p-id="34732"></path><path d="M693.570847 279.753495c26.999934 0 48.88743-21.554922 48.88743-48.131207l0-50.406017c0-26.576285-21.88852-48.109718-48.88743-48.109718-27.019377 0-48.925293 21.533432-48.925293 48.109718l0 50.406017C644.646578 258.198573 666.55147 279.753495 693.570847 279.753495z" p-id="34733"></path><path d="M854.35374 265.833461c0-38.809911-22.189372-56.839543-57.190537-56.839543l-28.304649-2.574638 0 24.445762c0 40.500413-33.377178 73.317843-74.513064 73.317843-41.166585 0-74.531484-32.81743-74.531484-73.317843l0-24.445762L403.055241 206.41928l0 24.445762c0 40.500413-33.380248 73.317843-74.514087 73.317843-41.167608 0-74.53046-32.81743-74.53046-73.317843l0-24.445762-27.812439 2.574638c-27.438932 0-57.204863 29.839609-57.204863 56.839543 0 0 0 451.081559 0 549.298488 0 45.409213 36.9741 75.760474 71.044056 75.760474 51.232848 0 450.362174-0.014326 538.058492-0.014326 38.931684 0 76.910671-27.267017 76.910671-70.838372C855.005586 691.809225 854.35374 265.833461 854.35374 265.833461zM818.523697 782.317589c0 50.593282-15.544021 70.685899-59.499116 70.685899-114.238834 0-380.150066 0-494.705102 0-36.868699 0-57.173141-19.296485-57.173141-56.839543 0-125.126812-1.954515-428.66399-1.954515-428.66399l613.595886 0C818.788733 367.499955 818.523697 656.972812 818.523697 782.317589z" p-id="34734"></path></svg>