<?xml version="1.0" standalone="no"?><!DOCTYPE svg PUBLIC "-//W3C//DTD SVG 1.1//EN" "http://www.w3.org/Graphics/SVG/1.1/DTD/svg11.dtd"><svg t="1505223231779" class="icon" style="" viewBox="0 0 1024 1024" version="1.1" xmlns="http://www.w3.org/2000/svg" p-id="36326" xmlns:xlink="http://www.w3.org/1999/xlink" width="200" height="200"><defs><style type="text/css"></style></defs><path d="M425.07065 750.08549c0.161682 0.125867 0.346901 0.237407 0.577145 0.319272 22.923082 8.176217 46.626947 12.311397 70.662363 12.311397 35.335786 0 64.606437-9.207709 86.998423-27.365254 22.714328-18.417465 34.231639-42.649356 34.231639-72.02336 0-28.528754-11.654434-52.336996-34.639938-70.76367-22.651906-18.145266-51.798736-27.345812-86.630033-27.345812-1.877767 0-3.755534 0.035816-5.619998 0.109494l0-64.577784 91.842755 0c0.025583 0 0.052189 0.002047 0.078795 0.002047s0.053212-0.002047 0.078795-0.002047l0.818645 0 0-0.020466c12.863982-0.472767 23.151279-11.044544 23.151279-24.026206s-10.287297-23.553439-23.151279-24.026206l0-0.022513-143.007041 0 0 0-0.001023 0c-3.083222 0-5.581112 2.49789-5.581112 5.581112 0 0.073678 0.008186 0.146333 0.011256 0.218988l-0.011256-0.001023 0 149.508106c0 4.650927 3.76986 8.41874 8.41874 8.41874 0.880043 0 1.728364-0.1361 2.527566-0.385786 0.00307-0.002047 0.00614 0 0.010233-0.002047 5.809309-1.400906 16.178471-2.677992 34.669614-2.677992 22.007223 0 40.557718 5.016247 55.132668 14.911618 14.141068 9.613962 21.015639 21.093411 21.015639 35.102473 0 13.510712-6.300496 24.677029-19.261693 34.136471-13.270235 9.68764-30.026874 14.598486-49.803289 14.598486-15.234983 0-30.890544-2.927679-46.772256-8.725732-0.231267-0.083911-0.445138-0.138146-0.650823-0.176009-2.331092-0.731664-4.810562-1.127683-7.383154-1.127683-13.610996 0-24.644283 11.034311-24.644283 24.645306C408.138002 737.596038 415.237701 746.847749 425.07065 750.08549z" p-id="36327"></path><path d="M327.746044 279.753495c27.018354 0 48.907896-21.554922 48.907896-48.131207l0-50.406017c0-26.576285-21.889543-48.109718-48.907896-48.109718-26.998911 0-48.904827 21.533432-48.904827 48.109718l0 50.406017C278.841218 258.198573 300.747133 279.753495 327.746044 279.753495z" p-id="36328"></path><path d="M693.570847 279.753495c26.999934 0 48.88743-21.554922 48.88743-48.131207l0-50.406017c0-26.576285-21.88852-48.109718-48.88743-48.109718-27.018354 0-48.925293 21.533432-48.925293 48.109718l0 50.406017C644.646578 258.198573 666.552493 279.753495 693.570847 279.753495z" p-id="36329"></path><path d="M854.35374 265.833461c0-38.809911-22.189372-56.839543-57.190537-56.839543l-28.304649-2.574638 0 24.445762c0 40.500413-33.377178 73.317843-74.513064 73.317843-41.166585 0-74.531484-32.81743-74.531484-73.317843l0-24.445762L403.055241 206.41928l0 24.445762c0 40.500413-33.380248 73.317843-74.514087 73.317843-41.167608 0-74.53046-32.81743-74.53046-73.317843l0-24.445762-27.812439 2.574638c-27.438932 0-57.204863 29.839609-57.204863 56.839543 0 0 0 451.081559 0 549.298488 0 45.409213 36.9741 75.760474 71.045079 75.760474 51.232848 0 450.361151-0.014326 538.057469-0.014326 38.931684 0 76.910671-27.267017 76.910671-70.838372C855.005586 691.809225 854.35374 265.833461 854.35374 265.833461zM818.523697 782.317589c0 50.593282-15.544021 70.685899-59.498092 70.685899-114.238834 0-380.15109 0-494.705102 0-36.868699 0-57.173141-19.296485-57.173141-56.839543 0-125.126812-1.954515-428.66399-1.954515-428.66399l613.595886 0C818.788733 367.499955 818.523697 656.972812 818.523697 782.317589z" p-id="36330"></path></svg>