<?xml version="1.0" standalone="no"?><!DOCTYPE svg PUBLIC "-//W3C//DTD SVG 1.1//EN" "http://www.w3.org/Graphics/SVG/1.1/DTD/svg11.dtd"><svg t="1505223246008" class="icon" style="" viewBox="0 0 1024 1024" version="1.1" xmlns="http://www.w3.org/2000/svg" p-id="37922" xmlns:xlink="http://www.w3.org/1999/xlink" width="200" height="200"><defs><style type="text/css"></style></defs><path d="M431.0969 735.823672c21.131273 20.506033 49.107441 30.902824 83.148745 30.902824 30.42801 0 56.67786-9.129938 78.016865-27.139104 21.601994-18.231223 32.555463-40.794102 32.555463-67.060325 0-25.517163-10.091846-47.340191-29.996175-64.862263-19.715017-17.356296-44.239574-26.15673-72.89317-26.15673-15.07637 0-30.358425 2.625804-45.576011 7.821129 8.788154-18.145266 20.36584-34.358529 34.522258-48.315402 15.110139-14.895245 33.927717-28.956495 56.022944-41.884946 8.372691-4.485151 14.06739-13.314237 14.06739-23.475667 0-14.699794-11.917424-26.617218-26.618241-26.617218-5.480828 0-10.574846 1.658779-14.809287 4.498454l-3.738138 2.230808c-29.745465 17.750269-54.862515 37.331233-74.650187 58.20361-19.87977 20.966521-35.33067 43.789319-45.930075 67.834968-10.642384 24.14798-16.040325 48.783053-16.040325 73.222675C399.17998 688.087461 409.917532 715.27159 431.0969 735.823672zM460.52514 645.768633c10.061147-5.674233 18.565844-9.629311 25.297153-11.768021 7.05058-2.238994 15.059997-3.373841 23.803125-3.373841 16.869203 0 30.538527 4.114714 40.627303 12.229532 9.893324 7.958252 14.702863 18.079774 14.702863 30.940686 0 12.688997-4.545526 22.900569-13.897521 31.216979-9.528004 8.473999-21.36561 12.593829-36.1882 12.593829-16.613376 0-29.798676-4.856611-40.310078-14.852266-10.440793-9.920954-15.516392-22.282492-15.516392-37.792745C459.043393 657.983839 459.541743 651.54008 460.52514 645.768633z" p-id="37923"></path><path d="M693.570847 279.753495c26.999934 0 48.88743-21.554922 48.88743-48.131207l0-50.406017c0-26.576285-21.88852-48.109718-48.88743-48.109718-27.018354 0-48.925293 21.533432-48.925293 48.109718l0 50.406017C644.646578 258.198573 666.552493 279.753495 693.570847 279.753495z" p-id="37924"></path><path d="M854.35374 265.833461c0-38.809911-22.189372-56.839543-57.190537-56.839543l-28.304649-2.574638 0 24.445762c0 40.500413-33.377178 73.317843-74.513064 73.317843-41.166585 0-74.531484-32.81743-74.531484-73.317843l0-24.445762L403.055241 206.41928l0 24.445762c0 40.500413-33.380248 73.317843-74.514087 73.317843-41.167608 0-74.53046-32.81743-74.53046-73.317843l0-24.445762-27.812439 2.574638c-27.438932 0-57.204863 29.839609-57.204863 56.839543 0 0 0 451.081559 0 549.298488 0 45.409213 36.9741 75.760474 71.045079 75.760474 51.232848 0 450.361151-0.014326 538.057469-0.014326 38.930661 0 76.910671-27.267017 76.910671-70.838372C855.005586 691.809225 854.35374 265.833461 854.35374 265.833461zM818.523697 782.317589c0 50.593282-15.544021 70.685899-59.498092 70.685899-114.238834 0-380.15109 0-494.705102 0-36.868699 0-57.173141-19.296485-57.173141-56.839543 0-125.126812-1.954515-428.66399-1.954515-428.66399l613.595886 0C818.788733 367.499955 818.523697 656.972812 818.523697 782.317589z" p-id="37925"></path><path d="M327.746044 279.753495c27.018354 0 48.907896-21.554922 48.907896-48.131207l0-50.406017c0-26.576285-21.889543-48.109718-48.907896-48.109718-26.998911 0-48.904827 21.533432-48.904827 48.109718l0 50.406017C278.841218 258.198573 300.747133 279.753495 327.746044 279.753495z" p-id="37926"></path></svg>