<?xml version="1.0" standalone="no"?><!DOCTYPE svg PUBLIC "-//W3C//DTD SVG 1.1//EN" "http://www.w3.org/Graphics/SVG/1.1/DTD/svg11.dtd"><svg t="1505223278833" class="icon" style="" viewBox="0 0 1024 1024" version="1.1" xmlns="http://www.w3.org/2000/svg" p-id="42660" xmlns:xlink="http://www.w3.org/1999/xlink" width="200" height="200"><defs><style type="text/css"></style></defs><path d="M428.515099 613.08014c19.962657 17.630542 44.197618 26.568099 72.036663 26.568099 17.192567 0 32.861432-2.638083 46.750767-7.854898-6.995321 16.223496-18.189268 32.269961-33.392528 47.843658-13.896498 14.242376-29.712719 27.033703-47.159066 38.231743-0.278339 0.144286-0.561795 0.279363-0.835018 0.431835-8.096399 4.502547-13.579273 13.168927-13.579273 23.12058 0 14.588253 11.780301 26.41358 26.312272 26.41358 4.094248 0 7.969509-0.939395 11.425214-2.612501 0.025583-0.01228 0.052189-0.020466 0.077771-0.033769 0.066515-0.035816 0.13303-0.073678 0.198521-0.109494 0.7552-0.375553 1.488911-0.788969 2.200108-1.235131 37.08564-20.805862 68.291362-48.703235 92.858898-83.061764 26.829042-37.520545 40.432875-75.280544 40.432875-112.230084 0-33.04972-11.123338-60.553121-33.060977-81.745792-21.88545-21.143553-50.326199-31.864732-84.531232-31.864732-30.422893 0-56.593949 9.058306-77.783551 26.923186-21.439288 18.075681-32.30987 40.483017-32.30987 66.596767C398.157697 573.549821 408.370293 595.290985 428.515099 613.08014zM472.148875 516.764514c9.691733-8.5487 21.697161-12.703323 36.700877-12.703323 16.408715 0 29.41596 4.9088 39.764656 15.005762 10.30674 10.058077 15.31787 22.697955 15.31787 38.645159 0 2.01489-0.449231 6.947226-2.512217 18.987447-16.307408 9.18008-33.139771 13.831007-50.068326 13.831007-14.911618 0-27.332509-4.229325-37.97387-12.93152-10.335393-8.444323-15.357779-18.113543-15.357779-29.560246C458.02111 535.373337 462.641337 525.144368 472.148875 516.764514z" p-id="42661"></path><path d="M693.570847 279.753495c26.999934 0 48.888454-21.554922 48.888454-48.131207l0-50.406017c0-26.576285-21.889543-48.109718-48.888454-48.109718-27.01733 0-48.925293 21.533432-48.925293 48.109718l0 50.406017C644.646578 258.198573 666.553517 279.753495 693.570847 279.753495z" p-id="42662"></path><path d="M327.747067 279.753495c27.01733 0 48.906873-21.554922 48.906873-48.131207l0-50.406017c0-26.576285-21.889543-48.109718-48.906873-48.109718-26.999934 0-48.904827 21.533432-48.904827 48.109718l0 50.406017C278.842241 258.198573 300.747133 279.753495 327.747067 279.753495z" p-id="42663"></path><path d="M854.35374 265.833461c0-38.809911-22.189372-56.839543-57.189514-56.839543l-28.304649-2.574638 0 24.445762c0 40.500413-33.377178 73.317843-74.513064 73.317843-41.167608 0-74.531484-32.81743-74.531484-73.317843l0-24.445762L403.056264 206.41928l0 24.445762c0 40.500413-33.381271 73.317843-74.515111 73.317843-41.167608 0-74.529437-32.81743-74.529437-73.317843l0-24.445762-27.813462 2.574638c-27.438932 0-57.204863 29.839609-57.204863 56.839543 0 0 0 451.081559 0 549.298488 0 45.409213 36.975123 75.760474 71.046103 75.760474 51.232848 0 450.361151-0.014326 538.057469-0.014326 38.931684 0 76.909647-27.267017 76.909647-70.838372C855.005586 691.809225 854.35374 265.833461 854.35374 265.833461zM818.52472 782.317589c0 50.593282-15.545044 70.685899-59.498092 70.685899-114.238834 0-380.152113 0-494.706125 0-36.868699 0-57.173141-19.296485-57.173141-56.839543 0-125.126812-1.954515-428.66399-1.954515-428.66399l613.595886 0C818.788733 367.499955 818.52472 656.972812 818.52472 782.317589z" p-id="42664"></path></svg>